<svg xmlns="http://www.w3.org/2000/svg" xmlns:xlink="http://www.w3.org/1999/xlink" width="500" zoomAndPan="magnify" viewBox="0 0 375 374.999991" height="500" preserveAspectRatio="xMidYMid meet" version="1.2"><metadata><ContainsAiGeneratedContent>Yes</ContainsAiGeneratedContent></metadata><defs><clipPath id="d05305d752"><path d="M 3.75 7.777344 L 372 7.777344 L 372 366 L 3.75 366 Z M 3.75 7.777344 "/></clipPath><clipPath id="71cc257daf"><path d="M 160.835938 113.5 L 215 113.5 L 215 166 L 160.835938 166 Z M 160.835938 113.5 "/></clipPath><clipPath id="56a6447826"><path d="M 84 111 L 142 111 L 142 172 L 84 172 Z M 84 111 "/></clipPath><clipPath id="7f1fcb0e6d"><path d="M 84.429688 171.585938 L 87.605469 111.410156 L 143.703125 114.371094 L 140.527344 174.546875 Z M 84.429688 171.585938 "/></clipPath><clipPath id="5104269030"><path d="M 84.429688 171.585938 L 87.605469 111.410156 L 143.703125 114.371094 L 140.527344 174.546875 Z M 84.429688 171.585938 "/></clipPath><clipPath id="3cfa8109ca"><path d="M 94 47 L 161 47 L 161 114 L 94 114 Z M 94 47 "/></clipPath><clipPath id="1fb304f860"><path d="M 94.53125 89.382812 L 137.875 47.515625 L 176.902344 87.921875 L 133.558594 129.789062 Z M 94.53125 89.382812 "/></clipPath><clipPath id="92d342fa30"><path d="M 94.53125 89.382812 L 137.875 47.515625 L 176.902344 87.921875 L 133.558594 129.789062 Z M 94.53125 89.382812 "/></clipPath><clipPath id="78b5242349"><path d="M 240 106 L 299 106 L 299 166 L 240 166 Z M 240 106 "/></clipPath><clipPath id="5ad254babd"><path d="M 243.457031 170.199219 L 238.289062 110.160156 L 294.257812 105.34375 L 299.425781 165.386719 Z M 243.457031 170.199219 "/></clipPath><clipPath id="9b021f4d2e"><path d="M 293.769531 105.613281 L 298.933594 165.652344 L 242.964844 170.46875 L 237.800781 110.425781 Z M 293.769531 105.613281 "/></clipPath><clipPath id="76be9ea129"><path d="M 162.128906 38.546875 L 222.390625 38.546875 L 222.390625 94 L 162.128906 94 Z M 162.128906 38.546875 "/></clipPath><clipPath id="33df700a4f"><path d="M 220 44 L 286 44 L 286 110 L 220 110 Z M 220 44 "/></clipPath><clipPath id="999e7ba937"><path d="M 243.226562 43.613281 L 285.839844 86.226562 L 246.117188 125.949219 L 203.507812 83.335938 Z M 243.226562 43.613281 "/></clipPath><clipPath id="930b2a8c71"><path d="M 243.226562 43.613281 L 285.839844 86.226562 L 246.117188 125.949219 L 203.507812 83.335938 Z M 243.226562 43.613281 "/></clipPath></defs><g id="ae5c10071a"><g clip-rule="nonzero" clip-path="url(#d05305d752)"><path style=" stroke:none;fill-rule:nonzero;fill:#013699;fill-opacity:1;" d="M 371.949219 187.914062 C 371.949219 212.375 367.003906 235.28125 357.210938 256.734375 C 347.421875 278.191406 333.917969 296.953125 316.808594 313.121094 C 299.699219 329.289062 279.910156 342.140625 257.234375 351.675781 C 234.558594 361.210938 210.441406 365.980469 184.878906 365.980469 C 159.316406 365.980469 136.640625 361.210938 114.996094 351.675781 C 93.351562 342.140625 74.179688 329.289062 57.378906 313.121094 C 40.683594 296.953125 27.492188 278.191406 18.007812 256.734375 C 8.523438 235.28125 3.785156 212.375 3.785156 187.914062 C 3.785156 163.453125 8.523438 139.410156 18.007812 117.644531 C 27.492188 95.875 40.683594 76.703125 57.378906 60.222656 C 74.078125 43.742188 93.351562 30.890625 114.996094 21.664062 C 136.640625 12.441406 159.933594 7.777344 184.878906 7.777344 C 209.820312 7.777344 234.558594 12.441406 257.234375 21.664062 C 279.910156 30.890625 299.699219 43.742188 316.808594 60.222656 C 333.816406 76.703125 347.316406 95.875 357.210938 117.644531 C 367.003906 139.410156 371.949219 162.832031 371.949219 187.914062 Z M 371.949219 187.914062 "/></g><g clip-rule="nonzero" clip-path="url(#71cc257daf)"><path style=" stroke:none;fill-rule:nonzero;fill:#eeede8;fill-opacity:1;" d="M 214.578125 139.796875 C 214.578125 143.371094 213.855469 146.714844 212.425781 149.847656 C 210.996094 152.980469 209.027344 155.71875 206.527344 158.078125 C 204.03125 160.441406 201.140625 162.316406 197.832031 163.707031 C 194.523438 165.101562 191.003906 165.796875 187.269531 165.796875 C 183.539062 165.796875 180.230469 165.101562 177.070312 163.707031 C 173.910156 162.316406 171.113281 160.441406 168.660156 158.078125 C 166.222656 155.71875 164.296875 152.980469 162.914062 149.847656 C 161.53125 146.714844 160.839844 143.371094 160.839844 139.796875 C 160.839844 136.226562 161.53125 132.714844 162.914062 129.539062 C 164.296875 126.359375 166.222656 123.5625 168.660156 121.15625 C 171.097656 118.75 173.910156 116.871094 177.070312 115.527344 C 180.230469 114.179688 183.628906 113.5 187.269531 113.5 C 190.910156 113.5 194.523438 114.179688 197.832031 115.527344 C 201.140625 116.871094 204.03125 118.75 206.527344 121.15625 C 209.011719 123.5625 210.980469 126.359375 212.425781 129.539062 C 213.855469 132.714844 214.578125 136.136719 214.578125 139.796875 Z M 214.578125 139.796875 "/></g><path style=" stroke:none;fill-rule:nonzero;fill:#eeede8;fill-opacity:1;" d="M 211.78125 183.757812 L 211.78125 289.699219 C 211.78125 314.652344 191.792969 334.875 167.128906 334.875 L 167.128906 228.929688 C 167.128906 203.976562 187.117188 183.757812 211.78125 183.757812 Z M 211.78125 183.757812 "/><g clip-rule="nonzero" clip-path="url(#56a6447826)"><g clip-rule="nonzero" clip-path="url(#7f1fcb0e6d)"><g clip-rule="nonzero" clip-path="url(#5104269030)"><path style=" stroke:none;fill-rule:nonzero;fill:#eeede8;fill-opacity:1;" d="M 108.832031 146.449219 C 110.660156 145.847656 112.652344 145.292969 114.804688 144.796875 C 116.960938 144.300781 119.210938 143.863281 121.550781 143.5 C 119.269531 142.785156 117.082031 142.035156 114.992188 141.261719 C 112.90625 140.484375 110.984375 139.703125 109.230469 138.914062 L 89.65625 130.679688 C 88.867188 130.359375 88.214844 129.789062 87.710938 128.976562 C 87.207031 128.164062 86.988281 127.179688 87.050781 126.03125 L 87.808594 111.664062 L 141.253906 136.300781 L 140.410156 152.3125 L 84.667969 171.183594 L 85.433594 156.671875 C 85.488281 155.625 85.804688 154.730469 86.390625 153.992188 C 86.976562 153.253906 87.679688 152.761719 88.503906 152.53125 Z M 108.832031 146.449219 "/></g></g></g><g clip-rule="nonzero" clip-path="url(#3cfa8109ca)"><g clip-rule="nonzero" clip-path="url(#1fb304f860)"><g clip-rule="nonzero" clip-path="url(#92d342fa30)"><path style=" stroke:none;fill-rule:nonzero;fill:#eeede8;fill-opacity:1;" d="M 129.523438 87.625 C 131.269531 88.429688 133.105469 89.382812 135.019531 90.488281 C 136.933594 91.59375 138.878906 92.808594 140.839844 94.136719 C 139.65625 92.054688 138.566406 90.019531 137.566406 88.027344 C 136.566406 86.039062 135.695312 84.15625 134.949219 82.378906 L 126.242188 63.015625 C 125.882812 62.242188 125.792969 61.382812 125.976562 60.445312 C 126.164062 59.507812 126.671875 58.636719 127.503906 57.835938 L 137.847656 47.84375 L 160.164062 102.296875 L 148.628906 113.4375 L 94.980469 89.253906 L 105.433594 79.15625 C 106.1875 78.425781 107.03125 77.988281 107.960938 77.847656 C 108.894531 77.707031 109.742188 77.824219 110.503906 78.21875 Z M 129.523438 87.625 "/></g></g></g><g clip-rule="nonzero" clip-path="url(#78b5242349)"><g clip-rule="nonzero" clip-path="url(#5ad254babd)"><g clip-rule="nonzero" clip-path="url(#9b021f4d2e)"><path style=" stroke:none;fill-rule:nonzero;fill:#eeede8;fill-opacity:1;" d="M 273.070312 133.878906 C 271.34375 134.726562 269.449219 135.550781 267.382812 136.339844 C 265.316406 137.128906 263.148438 137.875 260.878906 138.558594 C 263.242188 138.949219 265.511719 139.386719 267.6875 139.867188 C 269.859375 140.347656 271.871094 140.859375 273.71875 141.398438 L 294.242188 146.847656 C 295.066406 147.058594 295.789062 147.53125 296.402344 148.265625 C 297.011719 149 297.367188 149.945312 297.464844 151.09375 L 298.699219 165.425781 L 242.363281 148.410156 L 240.988281 132.429688 L 293.589844 106.042969 L 294.835938 120.523438 C 294.925781 121.566406 294.734375 122.496094 294.253906 123.308594 C 293.777344 124.121094 293.148438 124.703125 292.363281 125.046875 Z M 273.070312 133.878906 "/></g></g></g><g clip-rule="nonzero" clip-path="url(#76be9ea129)"><path style=" stroke:none;fill-rule:nonzero;fill:#eeede8;fill-opacity:1;" d="M 188.519531 61.589844 C 189.214844 63.382812 189.875 65.34375 190.484375 67.46875 C 191.09375 69.59375 191.648438 71.820312 192.136719 74.136719 C 192.726562 71.820312 193.359375 69.59375 194.023438 67.46875 C 194.6875 65.34375 195.367188 63.382812 196.066406 61.589844 L 203.253906 41.609375 C 203.535156 40.804688 204.066406 40.125 204.851562 39.578125 C 205.636719 39.03125 206.609375 38.761719 207.761719 38.761719 L 222.144531 38.761719 L 200.363281 93.433594 L 184.324219 93.433594 L 162.542969 38.761719 L 177.074219 38.761719 C 178.125 38.761719 179.035156 39.03125 179.804688 39.578125 C 180.570312 40.125 181.097656 40.800781 181.371094 41.609375 Z M 188.519531 61.589844 "/></g><g clip-rule="nonzero" clip-path="url(#33df700a4f)"><g clip-rule="nonzero" clip-path="url(#999e7ba937)"><g clip-rule="nonzero" clip-path="url(#930b2a8c71)"><path style=" stroke:none;fill-rule:nonzero;fill:#eeede8;fill-opacity:1;" d="M 245.59375 78.570312 C 244.816406 80.332031 243.898438 82.183594 242.824219 84.117188 C 241.753906 86.050781 240.574219 88.015625 239.277344 90 C 241.335938 88.777344 243.355469 87.652344 245.328125 86.617188 C 247.300781 85.585938 249.167969 84.679688 250.929688 83.90625 L 270.140625 74.863281 C 270.910156 74.488281 271.765625 74.386719 272.707031 74.554688 C 273.648438 74.722656 274.527344 75.21875 275.34375 76.035156 L 285.511719 86.207031 L 231.453125 109.460938 L 220.113281 98.121094 L 243.367188 44.058594 L 253.644531 54.335938 C 254.386719 55.078125 254.839844 55.914062 254.996094 56.84375 C 255.152344 57.773438 255.046875 58.621094 254.667969 59.390625 Z M 245.59375 78.570312 "/></g></g></g></g></svg>