<svg xmlns="http://www.w3.org/2000/svg" xmlns:xlink="http://www.w3.org/1999/xlink" width="500" zoomAndPan="magnify" viewBox="0 0 375 374.999991" height="500" preserveAspectRatio="xMidYMid meet" version="1.2"><metadata><ContainsAiGeneratedContent>Yes</ContainsAiGeneratedContent></metadata><defs><clipPath id="91a9d8cdfe"><path d="M 3.75 7.777344 L 372 7.777344 L 372 366 L 3.75 366 Z M 3.75 7.777344 "/></clipPath><clipPath id="79cb515b85"><path d="M 67.042969 71.535156 L 130 71.535156 L 130 132.285156 L 67.042969 132.285156 Z M 67.042969 71.535156 "/></clipPath><clipPath id="fe750a584e"><path d="M 245 71.535156 L 307.949219 71.535156 L 307.949219 132.285156 L 245 132.285156 Z M 245 71.535156 "/></clipPath><clipPath id="344ae546aa"><path d="M 191 141.070312 L 237.085938 141.070312 L 237.085938 186 L 191 186 Z M 191 141.070312 "/></clipPath><clipPath id="76dd0b3c1c"><path d="M 137 141.070312 L 183.125 141.070312 L 183.125 186 L 137 186 Z M 137 141.070312 "/></clipPath></defs><g id="ce02a6669a"><g clip-rule="nonzero" clip-path="url(#91a9d8cdfe)"><path style=" stroke:none;fill-rule:nonzero;fill:#013699;fill-opacity:1;" d="M 371.949219 187.914062 C 371.949219 212.375 367.003906 235.28125 357.210938 256.734375 C 347.421875 278.191406 333.917969 296.953125 316.808594 313.121094 C 299.699219 329.289062 279.910156 342.140625 257.234375 351.675781 C 234.558594 361.210938 210.441406 365.980469 184.878906 365.980469 C 159.316406 365.980469 136.640625 361.210938 114.996094 351.675781 C 93.351562 342.140625 74.179688 329.289062 57.378906 313.121094 C 40.683594 296.953125 27.492188 278.191406 18.007812 256.734375 C 8.523438 235.28125 3.785156 212.375 3.785156 187.914062 C 3.785156 163.453125 8.523438 139.410156 18.007812 117.640625 C 27.492188 95.875 40.683594 76.703125 57.378906 60.222656 C 74.078125 43.742188 93.351562 30.890625 114.996094 21.664062 C 136.640625 12.441406 159.933594 7.777344 184.878906 7.777344 C 209.820312 7.777344 234.558594 12.441406 257.234375 21.664062 C 279.910156 30.890625 299.699219 43.742188 316.808594 60.222656 C 333.816406 76.703125 347.316406 95.875 357.210938 117.640625 C 367.003906 139.410156 371.949219 162.832031 371.949219 187.914062 Z M 371.949219 187.914062 "/></g><g clip-rule="nonzero" clip-path="url(#79cb515b85)"><path style=" stroke:none;fill-rule:nonzero;fill:#eeede8;fill-opacity:1;" d="M 129.292969 101.996094 C 129.292969 106.132812 128.457031 110.007812 126.800781 113.632812 C 125.144531 117.261719 122.863281 120.433594 119.96875 123.167969 C 117.078125 125.902344 113.730469 128.078125 109.898438 129.6875 C 106.066406 131.300781 101.988281 132.109375 97.667969 132.109375 C 93.34375 132.109375 89.511719 131.300781 85.851562 129.6875 C 82.191406 128.078125 78.953125 125.902344 76.113281 123.167969 C 73.289062 120.433594 71.058594 117.261719 69.457031 113.632812 C 67.851562 110.007812 67.050781 106.132812 67.050781 101.996094 C 67.050781 97.859375 67.851562 93.792969 69.457031 90.113281 C 71.058594 86.433594 73.289062 83.191406 76.113281 80.402344 C 78.933594 77.617188 82.191406 75.441406 85.851562 73.882812 C 89.511719 72.324219 93.449219 71.535156 97.667969 71.535156 C 101.882812 71.535156 106.066406 72.324219 109.898438 73.882812 C 113.730469 75.441406 117.078125 77.617188 119.96875 80.402344 C 122.84375 83.191406 125.128906 86.433594 126.800781 90.113281 C 128.457031 93.792969 129.292969 97.753906 129.292969 101.996094 Z M 129.292969 101.996094 "/></g><path style=" stroke:none;fill-rule:nonzero;fill:#eeede8;fill-opacity:1;" d="M 72.644531 149.375 L 72.644531 271.632812 C 72.644531 300.425781 95.84375 323.761719 124.472656 323.761719 L 124.472656 201.503906 C 124.472656 172.710938 101.273438 149.375 72.644531 149.375 Z M 72.644531 149.375 "/><g clip-rule="nonzero" clip-path="url(#fe750a584e)"><path style=" stroke:none;fill-rule:nonzero;fill:#eeede8;fill-opacity:1;" d="M 245.703125 101.996094 C 245.703125 106.132812 246.539062 110.007812 248.191406 113.632812 C 249.847656 117.261719 252.132812 120.433594 255.023438 123.167969 C 257.914062 125.902344 261.261719 128.078125 265.09375 129.6875 C 268.929688 131.300781 273.003906 132.109375 277.328125 132.109375 C 281.648438 132.109375 285.480469 131.300781 289.140625 129.6875 C 292.800781 128.078125 296.042969 125.902344 298.882812 123.167969 C 301.703125 120.433594 303.933594 117.261719 305.539062 113.632812 C 307.140625 110.007812 307.941406 106.132812 307.941406 101.996094 C 307.941406 97.859375 307.140625 93.792969 305.539062 90.113281 C 303.933594 86.433594 301.703125 83.191406 298.882812 80.402344 C 296.058594 77.617188 292.800781 75.441406 289.140625 73.882812 C 285.480469 72.324219 281.542969 71.535156 277.328125 71.535156 C 273.109375 71.535156 268.929688 72.324219 265.09375 73.882812 C 261.261719 75.441406 257.914062 77.617188 255.023438 80.402344 C 252.148438 83.191406 249.867188 86.433594 248.191406 90.113281 C 246.539062 93.792969 245.703125 97.753906 245.703125 101.996094 Z M 245.703125 101.996094 "/></g><path style=" stroke:none;fill-rule:nonzero;fill:#eeede8;fill-opacity:1;" d="M 301.832031 149.375 L 301.832031 271.632812 C 301.832031 300.425781 278.632812 323.761719 250.003906 323.761719 L 250.003906 201.503906 C 250.003906 172.710938 273.203125 149.375 301.832031 149.375 Z M 301.832031 149.375 "/><g clip-rule="nonzero" clip-path="url(#344ae546aa)"><path style=" stroke:none;fill-rule:nonzero;fill:#eeede8;fill-opacity:1;" d="M 191.691406 163.375 C 191.691406 166.402344 192.304688 169.238281 193.515625 171.894531 C 194.726562 174.550781 196.398438 176.875 198.515625 178.878906 C 200.632812 180.878906 203.085938 182.46875 205.890625 183.652344 C 208.695312 184.832031 211.683594 185.421875 214.847656 185.421875 C 218.011719 185.421875 220.816406 184.832031 223.496094 183.652344 C 226.175781 182.46875 228.546875 180.878906 230.628906 178.878906 C 232.695312 176.875 234.328125 174.550781 235.5 171.894531 C 236.675781 169.238281 237.261719 166.402344 237.261719 163.375 C 237.261719 160.347656 236.675781 157.371094 235.5 154.675781 C 234.328125 151.980469 232.695312 149.605469 230.628906 147.566406 C 228.5625 145.527344 226.175781 143.933594 223.496094 142.792969 C 220.816406 141.652344 217.933594 141.074219 214.847656 141.074219 C 211.757812 141.074219 208.695312 141.652344 205.890625 142.792969 C 203.085938 143.933594 200.632812 145.527344 198.515625 147.566406 C 196.410156 149.605469 194.742188 151.980469 193.515625 154.675781 C 192.304688 157.371094 191.691406 160.269531 191.691406 163.375 Z M 191.691406 163.375 "/></g><path style=" stroke:none;fill-rule:nonzero;fill:#eeede8;fill-opacity:1;" d="M 232.550781 198.214844 L 232.550781 288.101562 C 232.550781 309.273438 215.621094 326.429688 194.726562 326.429688 L 194.726562 236.542969 C 194.726562 215.371094 211.660156 198.214844 232.550781 198.214844 Z M 232.550781 198.214844 "/><g clip-rule="nonzero" clip-path="url(#76dd0b3c1c)"><path style=" stroke:none;fill-rule:nonzero;fill:#eeede8;fill-opacity:1;" d="M 137.730469 163.375 C 137.730469 166.402344 138.34375 169.238281 139.554688 171.894531 C 140.765625 174.550781 142.4375 176.875 144.554688 178.878906 C 146.671875 180.878906 149.121094 182.46875 151.929688 183.652344 C 154.734375 184.832031 157.71875 185.421875 160.882812 185.421875 C 164.046875 185.421875 166.855469 184.832031 169.535156 183.652344 C 172.214844 182.46875 174.585938 180.878906 176.664062 178.878906 C 178.730469 176.875 180.367188 174.550781 181.539062 171.894531 C 182.710938 169.238281 183.300781 166.402344 183.300781 163.375 C 183.300781 160.347656 182.710938 157.371094 181.539062 154.675781 C 180.367188 151.980469 178.730469 149.605469 176.664062 147.566406 C 174.597656 145.527344 172.214844 143.933594 169.535156 142.792969 C 166.855469 141.652344 163.972656 141.074219 160.882812 141.074219 C 157.796875 141.074219 154.734375 141.652344 151.929688 142.792969 C 149.121094 143.933594 146.671875 145.527344 144.554688 147.566406 C 142.449219 149.605469 140.777344 151.980469 139.554688 154.675781 C 138.34375 157.371094 137.730469 160.269531 137.730469 163.375 Z M 137.730469 163.375 "/></g><path style=" stroke:none;fill-rule:nonzero;fill:#eeede8;fill-opacity:1;" d="M 140.957031 198.214844 L 140.957031 288.101562 C 140.957031 309.273438 157.886719 326.429688 178.78125 326.429688 L 178.78125 236.542969 C 178.78125 215.371094 161.847656 198.214844 140.957031 198.214844 Z M 140.957031 198.214844 "/></g></svg>