<svg width="600" height="600" viewBox="0 0 600 600" fill="none" xmlns="http://www.w3.org/2000/svg">
<rect width="600" height="600" rx="41" fill="#013699"/>
<path d="M127.021 204.791C127.021 208.097 126.352 211.193 125.029 214.093C123.706 216.993 121.882 219.528 119.57 221.713C117.258 223.899 114.584 225.636 111.52 226.924C108.457 228.213 105.198 228.857 101.744 228.857C98.2904 228.857 95.2266 228.213 92.302 226.924C89.3775 225.636 86.7871 223.899 84.5171 221.713C82.2611 219.528 80.4785 216.993 79.1972 214.093C77.916 211.193 77.2754 208.097 77.2754 204.791C77.2754 201.486 77.916 198.236 79.1972 195.294C80.4785 192.352 82.2611 189.761 84.5171 187.533C86.7732 185.306 89.3775 183.569 92.302 182.322C95.2266 181.076 98.3739 180.445 101.744 180.445C105.114 180.445 108.457 181.076 111.52 182.322C114.584 183.569 117.258 185.306 119.57 187.533C121.868 189.761 123.692 192.352 125.029 195.294C126.352 198.236 127.021 201.401 127.021 204.791Z" fill="white"/>
<path d="M122.775 284.269V381.513C100.005 381.513 81.5527 362.952 81.5527 340.049V242.805C104.322 242.805 122.775 261.365 122.775 284.269Z" fill="white"/>
<path d="M547.9 204.791C547.9 208.097 547.231 211.193 545.908 214.093C544.585 216.993 542.761 219.528 540.449 221.713C538.137 223.899 535.463 225.636 532.399 226.924C529.336 228.213 526.077 228.857 522.623 228.857C519.169 228.857 516.105 228.213 513.181 226.924C510.256 225.636 507.666 223.899 505.396 221.713C503.14 219.528 501.357 216.993 500.076 214.093C498.795 211.193 498.154 208.097 498.154 204.791C498.154 201.486 498.795 198.236 500.076 195.294C501.357 192.352 503.14 189.761 505.396 187.533C507.652 185.306 510.256 183.569 513.181 182.322C516.105 181.076 519.253 180.445 522.623 180.445C525.993 180.445 529.336 181.076 532.399 182.322C535.463 183.569 538.137 185.306 540.449 187.533C542.747 189.761 544.571 192.352 545.908 195.294C547.245 198.236 547.9 201.401 547.9 204.791Z" fill="white"/>
<path d="M543.707 242.805V340.049C543.707 362.952 525.254 381.513 502.484 381.513V284.269C502.484 261.365 520.937 242.805 543.707 242.805Z" fill="white"/>
<path d="M251.938 250.033C252.648 247.988 253.971 246.265 255.921 244.878C257.871 243.491 260.182 242.805 262.842 242.805H299.719L244.445 381.527H203.752L148.479 242.805H184.98C187.904 242.805 190.369 243.491 192.361 244.878C194.352 246.265 195.703 247.974 196.413 250.033L214.657 300.728C216.426 305.281 218.152 310.254 219.837 315.647C221.523 321.04 223.124 326.685 224.628 332.569C225.868 326.685 227.26 321.04 228.82 315.647C230.366 310.254 232.037 305.281 233.806 300.728L251.938 250.033Z" fill="white"/>
<path d="M391.39 300.728C393.159 305.281 394.83 310.254 396.376 315.647C397.922 321.04 399.328 326.685 400.568 332.569C402.072 326.685 403.673 321.04 405.359 315.647C407.044 310.254 408.77 305.281 410.539 300.728L428.783 250.033C429.493 247.988 430.844 246.265 432.835 244.878C434.827 243.491 437.292 242.805 440.216 242.805H476.717L421.444 381.527H380.751L325.477 242.805H362.354C365.014 242.805 367.325 243.491 369.275 244.878C371.225 246.265 372.562 247.974 373.258 250.033L391.39 300.728Z" fill="white"/>
</svg>
