<?xml version="1.0" encoding="UTF-8"?>
<svg version="1.1" xmlns="http://www.w3.org/2000/svg" width="512" height="512">
<path d="M0 0 C8.97289354 6.23995237 13.78767761 14.39377241 16 25 C16.4145125 29.77065612 16.40958015 34.51560373 16.38768005 39.30198669 C16.39185919 40.73408759 16.39733988 42.16618517 16.40399987 43.59827667 C16.41839704 47.51085928 16.41422782 51.42323022 16.40683305 55.33582413 C16.40208946 59.56427534 16.4146217 63.79268153 16.42485046 68.02111816 C16.44202016 76.29594522 16.44288232 84.57069628 16.43763756 92.84553652 C16.43359143 99.57290053 16.43504467 106.30024212 16.44038582 113.02760506 C16.44113424 113.98612456 16.44188266 114.94464406 16.44265376 115.9322096 C16.44418528 117.87961022 16.44572363 119.82701084 16.44726873 121.77441145 C16.460987 140.02406815 16.45556068 158.27368195 16.44408352 176.52333767 C16.43415053 193.20865141 16.44709416 209.89385427 16.47101771 226.57915091 C16.49541611 243.7252103 16.50501484 260.87121806 16.49836498 278.01729447 C16.49487459 287.63810804 16.49709309 297.25883634 16.51461601 306.87963676 C16.52934718 315.06898536 16.5299614 323.25818861 16.5125451 331.44753437 C16.50404052 335.62313208 16.50187224 339.79847025 16.51719666 343.97405434 C16.53106988 347.80169197 16.52624724 351.62884835 16.50695742 355.45645834 C16.50143711 357.48586489 16.51544684 359.51529611 16.53031152 361.54465574 C16.44477657 372.21636213 14.56300025 381.34176782 6.9765625 389.21875 C-2.17499869 397.46600672 -11.5549009 400.66725528 -23.84765625 400.265625 C-34.1560853 399.39700892 -40.94591483 394.63065563 -48.97070312 388.53466797 C-51.8891085 386.32760635 -54.84304571 384.16990775 -57.79394531 382.0065918 C-60.22063359 380.22568379 -62.64223994 378.43806982 -65.0625 376.6484375 C-68.33013884 374.23260799 -71.60081353 371.82101067 -74.875 369.4140625 C-82.92888248 363.49240161 -90.95990134 357.54331651 -98.94873047 351.53417969 C-107.25369379 345.29464612 -115.63076572 339.15286921 -124 333 C-127.31312392 330.56334678 -130.62546459 328.12563249 -133.9375 325.6875 C-134.6694458 325.14947754 -135.4013916 324.61145508 -136.15551758 324.05712891 C-136.87634521 323.52651855 -137.59717285 322.9959082 -138.33984375 322.44921875 C-139.09305908 321.91361328 -139.84627441 321.37800781 -140.62231445 320.82617188 C-143 319 -143 319 -145.44604492 316.61132812 C-155.09003509 307.8309918 -165.01077537 308.85177479 -177.4375 309.125 C-181.39457521 309.16986117 -185.35127717 309.1899511 -189.30859375 309.1953125 C-190.72163536 309.19979904 -190.72163536 309.19979904 -192.16322327 309.20437622 C-207.26123438 309.11462996 -218.65199125 304.83110682 -229.703125 294.44921875 C-239.75379963 283.73191774 -241.45482713 271.20867003 -241.40405273 257.01416016 C-241.40976929 255.64447986 -241.41673846 254.27480431 -241.42485046 252.90513611 C-241.44265649 249.21694587 -241.4416373 245.52899517 -241.43590808 241.84077501 C-241.43279754 238.74719769 -241.43892932 235.65366515 -241.44494683 232.56009424 C-241.45894956 225.25421694 -241.45746669 217.94845669 -241.44604492 210.64257812 C-241.43457103 203.13813246 -241.44863666 195.63404449 -241.4754414 188.12964594 C-241.4976868 181.65621307 -241.50421589 175.18289175 -241.49836498 168.70942342 C-241.49501485 164.85649437 -241.4972794 161.00379441 -241.51461601 157.15089798 C-241.53022486 153.52434261 -241.52597789 149.89831189 -241.50731087 146.2717762 C-241.50194199 144.3289467 -241.51603279 142.38609282 -241.53100586 140.4433136 C-241.41607093 126.5544307 -237.7057029 115.18630807 -228.12109375 105.00390625 C-218.23946448 95.7211636 -207.23604583 92.72068733 -194.046875 92.859375 C-191.87757224 92.84218494 -189.70829671 92.82122506 -187.5390625 92.796875 C-184.16100241 92.76374721 -180.78903311 92.74940634 -177.41113281 92.80078125 C-160.63254941 93.01862063 -150.63469888 90.14601372 -138.08128357 78.83799744 C-134.57816311 75.74436497 -130.84090328 72.95591053 -127.125 70.125 C-125.63833989 68.96349671 -124.15240014 67.80106905 -122.66796875 66.63671875 C-114.99922159 60.64412892 -107.23173594 54.77977964 -99.48388672 48.89013672 C-95.81745353 46.10013026 -92.15839006 43.30053963 -88.5 40.5 C-84.00807183 37.06264279 -79.51399229 33.62814661 -75.015625 30.19921875 C-74.15372559 29.54219971 -73.29182617 28.88518066 -72.40380859 28.20825195 C-70.63699546 26.86290584 -68.86909361 25.5189883 -67.10009766 24.17651367 C-62.50139369 20.68397081 -57.92554664 17.16668638 -53.3828125 13.6015625 C-52.46016602 12.88331299 -51.53751953 12.16506348 -50.58691406 11.42504883 C-48.8397085 10.06399646 -47.09892185 8.69464331 -45.36621094 7.31518555 C-32.21452522 -2.883301 -15.55318106 -9.02830202 0 0 Z " fill="rgba(245, 245, 245, 0.5)" transform="translate(283,58)"/>
<path d="M0 0 C1.63388672 -0.04253906 1.63388672 -0.04253906 3.30078125 -0.0859375 C10.68297593 0.91879027 15.50485306 5.76528971 20.49609375 10.890625 C21.10767838 11.50645447 21.719263 12.12228394 22.34938049 12.7567749 C24.28180893 14.70586074 26.20348241 16.66516292 28.125 18.625 C29.44135769 19.95642122 30.75840852 21.28715751 32.07617188 22.6171875 C35.28801545 25.86192847 38.49026263 29.11586833 41.6875 32.375 C45.81148598 30.76057138 48.48512218 27.76322848 51.484375 24.6328125 C52.61950512 23.47237588 53.7549313 22.31222881 54.890625 21.15234375 C56.66296183 19.33055774 58.43194639 17.50576496 60.1953125 15.67529297 C61.90760605 13.90205175 63.63257019 12.14191011 65.359375 10.3828125 C65.87425476 9.84101349 66.38913452 9.29921448 66.9196167 8.74099731 C71.43115777 4.16932746 76.40961693 0.93224012 82.8125 -0.15625 C89.22063009 -0.08659641 94.54815613 0.2681136 99.6875 4.375 C104.7667187 9.70364462 107.40431169 14.86346491 108 22.25 C107.71494009 30.84940248 103.77558348 36.01458404 97.83203125 41.71875 C96.83957649 42.70059265 96.83957649 42.70059265 95.82707214 43.70227051 C93.72957715 45.77197601 91.61531296 47.82352463 89.5 49.875 C88.06721109 51.28268636 86.63555798 52.69152976 85.20507812 54.1015625 C81.7122129 57.53956326 78.20420769 60.96139831 74.6875 64.375 C75.87098022 65.80972656 75.87098022 65.80972656 77.07836914 67.2734375 C77.52217422 67.81145996 77.96597931 68.34948242 78.42323303 68.90380859 C79.86691731 70.5837828 81.40704139 71.97841471 83.125 73.375 C87.19886641 76.86577485 91.05148626 80.55228782 94.875 84.3125 C95.46917725 84.88548828 96.06335449 85.45847656 96.67553711 86.04882812 C102.90250663 92.22606565 107.34309592 98.20893881 107.9375 107.125 C107.83834549 113.78074635 105.40594869 119.65655131 100.6875 124.375 C94.53018105 128.63333273 89.14243347 130.07133994 81.6875 129.375 C69.80331458 126.49979385 61.37464771 115.20469062 53.0625 106.8125 C52.15371094 105.89919922 51.24492187 104.98589844 50.30859375 104.04492188 C48.09922045 101.82392029 45.89223969 99.60059967 43.6875 97.375 C39.45717208 99.00366353 36.73156785 102.1653498 33.671875 105.37109375 C32.49132976 106.58181363 31.3103255 107.79208608 30.12890625 109.00195312 C28.28272829 110.90375657 26.44071878 112.80914085 24.60693359 114.72290039 C22.82746863 116.57541203 21.03226105 118.41147814 19.234375 120.24609375 C18.69762146 120.81492783 18.16086792 121.3837619 17.60784912 121.96983337 C13.11321866 126.52273583 8.63040429 128.67249217 2.25390625 129.80859375 C-4.37446517 129.82151455 -10.13398877 128.24109346 -15.140625 123.7265625 C-19.58863964 118.78192486 -21.59929686 114.29239994 -21.6875 107.5625 C-21.73003906 106.09876953 -21.73003906 106.09876953 -21.7734375 104.60546875 C-20.67923483 96.93677716 -16.21292087 91.69586189 -10.796875 86.46875 C-10.18104553 85.85858032 -9.56521606 85.24841064 -8.9307251 84.61975098 C-6.98392878 82.69513843 -5.02362494 80.78499871 -3.0625 78.875 C-1.73084806 77.56343624 -0.40010954 76.2509444 0.9296875 74.9375 C4.17183635 71.7391793 7.42616703 68.5537515 10.6875 65.375 C7.11471512 61.10044054 3.45933315 57.05226978 -0.5703125 53.1953125 C-1.53574974 52.25712075 -2.50057538 51.31829932 -3.46484375 50.37890625 C-4.9510314 48.93586757 -6.44052509 47.49712032 -7.94091797 46.06884766 C-14.73499998 39.58591104 -20.16362738 33.87119886 -21.84375 24.37109375 C-21.75660617 17.2361927 -20.67680667 11.87981136 -15.62890625 6.62109375 C-10.59346138 2.12709457 -6.8835584 0.08088788 0 0 Z " fill="rgba(245, 245, 245, 0.5)" transform="translate(362.3125,192.625)"/>
</svg>
