<svg xmlns="http://www.w3.org/2000/svg" xmlns:xlink="http://www.w3.org/1999/xlink" width="500" zoomAndPan="magnify" viewBox="0 0 375 374.999991" height="500" preserveAspectRatio="xMidYMid meet" version="1.2"><metadata><ContainsAiGeneratedContent>Yes</ContainsAiGeneratedContent></metadata><defs><clipPath id="082ed99484"><path d="M 3.75 7.777344 L 372 7.777344 L 372 366 L 3.75 366 Z M 3.75 7.777344 "/></clipPath><clipPath id="f6b2941a72"><path d="M 59.847656 105.257812 L 100 105.257812 L 100 143.976562 L 59.847656 143.976562 Z M 59.847656 105.257812 "/></clipPath><clipPath id="bb730a04dd"><path d="M 64 156.117188 L 98 156.117188 L 98 268 L 64 268 Z M 64 156.117188 "/></clipPath><clipPath id="c349d345d1"><path d="M 149.78125 73.632812 L 163 73.632812 L 163 86.558594 L 149.78125 86.558594 Z M 149.78125 73.632812 "/></clipPath><clipPath id="9dc0c7e1f5"><path d="M 151 90.613281 L 162.652344 90.613281 L 162.652344 128 L 151 128 Z M 151 90.613281 "/></clipPath><clipPath id="49d8b11667"><path d="M 103.214844 90.429688 L 144.238281 90.429688 L 144.238281 128 L 103.214844 128 Z M 103.214844 90.429688 "/></clipPath><clipPath id="ff83f82c4f"><path d="M 177.089844 120.699219 L 190.535156 120.699219 L 190.535156 133.625 L 177.089844 133.625 Z M 177.089844 120.699219 "/></clipPath><clipPath id="2d72e3b98e"><path d="M 178.238281 137.679688 L 189.960938 137.679688 L 189.960938 175 L 178.238281 175 Z M 178.238281 137.679688 "/></clipPath><clipPath id="99110f04ff"><path d="M 130.523438 137.496094 L 171.546875 137.496094 L 171.546875 175.589844 L 130.523438 175.589844 Z M 130.523438 137.496094 "/></clipPath><clipPath id="af4f3dc4cf"><path d="M 205.304688 167.761719 L 218.75 167.761719 L 218.75 180.691406 L 205.304688 180.691406 Z M 205.304688 167.761719 "/></clipPath><clipPath id="87a62d23c8"><path d="M 206.453125 184.742188 L 218 184.742188 L 218 222.664062 L 206.453125 222.664062 Z M 206.453125 184.742188 "/></clipPath><clipPath id="2a61616ba8"><path d="M 159 184.5625 L 199.761719 184.5625 L 199.761719 222.652344 L 159 222.652344 Z M 159 184.5625 "/></clipPath><clipPath id="5dddd838e4"><path d="M 232.71875 214.828125 L 246 214.828125 L 246 227.753906 L 232.71875 227.753906 Z M 232.71875 214.828125 "/></clipPath><clipPath id="d3b8590457"><path d="M 234 232 L 245.589844 232 L 245.589844 269.726562 L 234 269.726562 Z M 234 232 "/></clipPath><clipPath id="c79412a257"><path d="M 186.152344 231.625 L 227.175781 231.625 L 227.175781 269.71875 L 186.152344 269.71875 Z M 186.152344 231.625 "/></clipPath><clipPath id="b800ef2fc4"><path d="M 238.238281 73.632812 L 251.683594 73.632812 L 251.683594 86.558594 L 238.238281 86.558594 Z M 238.238281 73.632812 "/></clipPath><clipPath id="8657352391"><path d="M 239.386719 90.613281 L 251 90.613281 L 251 128 L 239.386719 128 Z M 239.386719 90.613281 "/></clipPath><clipPath id="765a3bfc05"><path d="M 191.671875 90.429688 L 232.695312 90.429688 L 232.695312 128 L 191.671875 128 Z M 191.671875 90.429688 "/></clipPath><clipPath id="059be98ee6"><path d="M 265.546875 120.699219 L 278.992188 120.699219 L 278.992188 133.625 L 265.546875 133.625 Z M 265.546875 120.699219 "/></clipPath><clipPath id="b241692fa9"><path d="M 267 137.679688 L 278.417969 137.679688 L 278.417969 175 L 267 175 Z M 267 137.679688 "/></clipPath><clipPath id="7bab05d323"><path d="M 219 137.496094 L 260 137.496094 L 260 175.589844 L 219 175.589844 Z M 219 137.496094 "/></clipPath><clipPath id="247a9c7ab5"><path d="M 293.761719 167.761719 L 307 167.761719 L 307 180.691406 L 293.761719 180.691406 Z M 293.761719 167.761719 "/></clipPath><clipPath id="47d9b2ae88"><path d="M 295 184.742188 L 306.632812 184.742188 L 306.632812 222.664062 L 295 222.664062 Z M 295 184.742188 "/></clipPath><clipPath id="7d387c5702"><path d="M 247.195312 184.5625 L 288.21875 184.5625 L 288.21875 222.652344 L 247.195312 222.652344 Z M 247.195312 184.5625 "/></clipPath><clipPath id="c8c49bec34"><path d="M 321.175781 214.828125 L 334.621094 214.828125 L 334.621094 227.753906 L 321.175781 227.753906 Z M 321.175781 214.828125 "/></clipPath><clipPath id="37c05720d7"><path d="M 322.328125 232 L 334 232 L 334 269.726562 L 322.328125 269.726562 Z M 322.328125 232 "/></clipPath><clipPath id="6a7804590b"><path d="M 274.613281 231.625 L 315.632812 231.625 L 315.632812 269.71875 L 274.613281 269.71875 Z M 274.613281 231.625 "/></clipPath></defs><g id="8377b13367"><g clip-rule="nonzero" clip-path="url(#082ed99484)"><path style=" stroke:none;fill-rule:nonzero;fill:#013699;fill-opacity:1;" d="M 371.949219 187.914062 C 371.949219 212.375 367.003906 235.28125 357.210938 256.734375 C 347.421875 278.191406 333.917969 296.953125 316.808594 313.121094 C 299.699219 329.289062 279.910156 342.140625 257.234375 351.675781 C 234.558594 361.210938 210.441406 365.980469 184.878906 365.980469 C 159.316406 365.980469 136.640625 361.210938 114.996094 351.675781 C 93.351562 342.140625 74.179688 329.289062 57.378906 313.121094 C 40.683594 296.953125 27.492188 278.191406 18.007812 256.734375 C 8.523438 235.28125 3.785156 212.375 3.785156 187.914062 C 3.785156 163.453125 8.523438 139.410156 18.007812 117.644531 C 27.492188 95.875 40.683594 76.703125 57.378906 60.222656 C 74.078125 43.742188 93.351562 30.890625 114.996094 21.664062 C 136.640625 12.441406 159.933594 7.777344 184.878906 7.777344 C 209.820312 7.777344 234.558594 12.441406 257.234375 21.664062 C 279.910156 30.890625 299.699219 43.742188 316.808594 60.222656 C 333.816406 76.703125 347.316406 95.875 357.210938 117.644531 C 367.003906 139.410156 371.949219 162.832031 371.949219 187.914062 Z M 371.949219 187.914062 "/></g><g clip-rule="nonzero" clip-path="url(#f6b2941a72)"><path style=" stroke:none;fill-rule:nonzero;fill:#eeede8;fill-opacity:1;" d="M 99.308594 124.570312 C 99.308594 127.191406 98.777344 129.648438 97.726562 131.949219 C 96.679688 134.25 95.230469 136.261719 93.398438 137.992188 C 91.5625 139.726562 89.441406 141.105469 87.011719 142.128906 C 84.582031 143.148438 81.996094 143.660156 79.257812 143.660156 C 76.519531 143.660156 74.085938 143.148438 71.765625 142.128906 C 69.449219 141.105469 67.394531 139.726562 65.59375 137.992188 C 63.800781 136.261719 62.386719 134.25 61.371094 131.949219 C 60.355469 129.648438 59.847656 127.191406 59.847656 124.570312 C 59.847656 121.949219 60.355469 119.371094 61.371094 117.035156 C 62.386719 114.703125 63.800781 112.648438 65.59375 110.878906 C 67.382812 109.113281 69.449219 107.734375 71.765625 106.746094 C 74.085938 105.757812 76.582031 105.257812 79.257812 105.257812 C 81.929688 105.257812 84.582031 105.757812 87.011719 106.746094 C 89.441406 107.734375 91.5625 109.113281 93.398438 110.878906 C 95.21875 112.648438 96.667969 114.703125 97.726562 117.035156 C 98.777344 119.371094 99.308594 121.878906 99.308594 124.570312 Z M 99.308594 124.570312 "/></g><g clip-rule="nonzero" clip-path="url(#bb730a04dd)"><path style=" stroke:none;fill-rule:nonzero;fill:#eeede8;fill-opacity:1;" d="M 64.648438 156.847656 L 64.648438 234.644531 C 64.648438 252.964844 79.324219 267.816406 97.433594 267.816406 L 97.433594 190.019531 C 97.433594 171.695312 82.757812 156.847656 64.648438 156.847656 Z M 64.648438 156.847656 "/></g><g clip-rule="nonzero" clip-path="url(#c349d345d1)"><path style=" stroke:none;fill-rule:nonzero;fill:#eeede8;fill-opacity:1;" d="M 162.957031 80.082031 C 162.957031 80.957031 162.777344 81.777344 162.429688 82.542969 C 162.078125 83.3125 161.59375 83.984375 160.984375 84.5625 C 160.371094 85.140625 159.660156 85.601562 158.851562 85.941406 C 158.039062 86.285156 157.175781 86.453125 156.261719 86.453125 C 155.347656 86.453125 154.535156 86.285156 153.761719 85.941406 C 152.984375 85.601562 152.300781 85.140625 151.699219 84.5625 C 151.101562 83.984375 150.628906 83.3125 150.289062 82.542969 C 149.949219 81.777344 149.78125 80.957031 149.78125 80.082031 C 149.78125 79.207031 149.949219 78.34375 150.289062 77.566406 C 150.628906 76.785156 151.101562 76.101562 151.699219 75.511719 C 152.296875 74.921875 152.984375 74.460938 153.761719 74.128906 C 154.535156 73.800781 155.367188 73.632812 156.261719 73.632812 C 157.152344 73.632812 158.039062 73.800781 158.851562 74.128906 C 159.660156 74.460938 160.371094 74.921875 160.984375 75.511719 C 161.589844 76.101562 162.074219 76.785156 162.429688 77.566406 C 162.777344 78.34375 162.957031 79.183594 162.957031 80.082031 Z M 162.957031 80.082031 "/></g><g clip-rule="nonzero" clip-path="url(#9dc0c7e1f5)"><path style=" stroke:none;fill-rule:nonzero;fill:#eeede8;fill-opacity:1;" d="M 162.269531 90.855469 L 162.269531 116.832031 C 162.269531 122.949219 157.371094 127.90625 151.324219 127.90625 L 151.324219 101.933594 C 151.324219 95.816406 156.222656 90.855469 162.269531 90.855469 Z M 162.269531 90.855469 "/></g><g clip-rule="nonzero" clip-path="url(#49d8b11667)"><path style=" stroke:none;fill-rule:nonzero;fill:#eeede8;fill-opacity:1;" d="M 121.246094 106.179688 C 121.722656 107.40625 122.171875 108.742188 122.589844 110.195312 C 123.003906 111.648438 123.382812 113.167969 123.71875 114.753906 C 124.121094 113.167969 124.554688 111.648438 125.007812 110.195312 C 125.460938 108.742188 125.925781 107.40625 126.402344 106.179688 L 131.316406 92.527344 C 131.507812 91.976562 131.871094 91.511719 132.40625 91.136719 C 132.945312 90.761719 133.609375 90.578125 134.394531 90.578125 L 144.226562 90.578125 L 129.339844 127.9375 L 118.378906 127.9375 L 103.496094 90.578125 L 113.425781 90.578125 C 114.140625 90.578125 114.765625 90.761719 115.289062 91.136719 C 115.816406 91.511719 116.175781 91.972656 116.363281 92.527344 Z M 121.246094 106.179688 "/></g><g clip-rule="nonzero" clip-path="url(#ff83f82c4f)"><path style=" stroke:none;fill-rule:nonzero;fill:#eeede8;fill-opacity:1;" d="M 190.265625 127.144531 C 190.265625 128.019531 190.089844 128.839844 189.738281 129.609375 C 189.386719 130.375 188.902344 131.046875 188.292969 131.625 C 187.679688 132.207031 186.972656 132.664062 186.160156 133.007812 C 185.347656 133.347656 184.484375 133.519531 183.570312 133.519531 C 182.65625 133.519531 181.84375 133.347656 181.070312 133.007812 C 180.296875 132.664062 179.609375 132.207031 179.007812 131.625 C 178.410156 131.046875 177.9375 130.375 177.597656 129.609375 C 177.261719 128.839844 177.089844 128.019531 177.089844 127.144531 C 177.089844 126.269531 177.261719 125.410156 177.597656 124.628906 C 177.9375 123.851562 178.410156 123.164062 179.007812 122.574219 C 179.605469 121.984375 180.296875 121.523438 181.070312 121.195312 C 181.84375 120.863281 182.679688 120.699219 183.570312 120.699219 C 184.464844 120.699219 185.347656 120.863281 186.160156 121.195312 C 186.972656 121.523438 187.679688 121.984375 188.292969 122.574219 C 188.902344 123.164062 189.382812 123.851562 189.738281 124.628906 C 190.089844 125.410156 190.265625 126.246094 190.265625 127.144531 Z M 190.265625 127.144531 "/></g><g clip-rule="nonzero" clip-path="url(#2d72e3b98e)"><path style=" stroke:none;fill-rule:nonzero;fill:#eeede8;fill-opacity:1;" d="M 189.578125 137.921875 L 189.578125 163.894531 C 189.578125 170.011719 184.679688 174.96875 178.632812 174.96875 L 178.632812 148.996094 C 178.632812 142.878906 183.53125 137.921875 189.578125 137.921875 Z M 189.578125 137.921875 "/></g><g clip-rule="nonzero" clip-path="url(#99110f04ff)"><path style=" stroke:none;fill-rule:nonzero;fill:#eeede8;fill-opacity:1;" d="M 148.554688 153.242188 C 149.03125 154.46875 149.480469 155.808594 149.898438 157.261719 C 150.316406 158.714844 150.691406 160.234375 151.027344 161.816406 C 151.433594 160.234375 151.863281 158.714844 152.316406 157.261719 C 152.769531 155.808594 153.234375 154.46875 153.710938 153.242188 L 158.625 139.589844 C 158.816406 139.039062 159.179688 138.574219 159.71875 138.203125 C 160.253906 137.828125 160.917969 137.644531 161.703125 137.644531 L 171.535156 137.644531 L 156.648438 175.003906 L 145.691406 175.003906 L 130.804688 137.644531 L 140.734375 137.644531 C 141.453125 137.644531 142.074219 137.828125 142.601562 138.203125 C 143.125 138.574219 143.484375 139.035156 143.671875 139.589844 Z M 148.554688 153.242188 "/></g><g clip-rule="nonzero" clip-path="url(#af4f3dc4cf)"><path style=" stroke:none;fill-rule:nonzero;fill:#eeede8;fill-opacity:1;" d="M 218.480469 174.210938 C 218.480469 175.085938 218.300781 175.90625 217.953125 176.671875 C 217.601562 177.441406 217.117188 178.113281 216.507812 178.691406 C 215.894531 179.269531 215.1875 179.730469 214.375 180.070312 C 213.5625 180.414062 212.699219 180.582031 211.785156 180.582031 C 210.871094 180.582031 210.058594 180.414062 209.285156 180.070312 C 208.511719 179.730469 207.824219 179.269531 207.222656 178.691406 C 206.625 178.113281 206.152344 177.441406 205.8125 176.671875 C 205.472656 175.90625 205.304688 175.085938 205.304688 174.210938 C 205.304688 173.335938 205.472656 172.472656 205.8125 171.695312 C 206.152344 170.914062 206.625 170.230469 207.222656 169.640625 C 207.820312 169.050781 208.511719 168.589844 209.285156 168.257812 C 210.058594 167.929688 210.890625 167.761719 211.785156 167.761719 C 212.675781 167.761719 213.5625 167.929688 214.375 168.257812 C 215.1875 168.589844 215.894531 169.050781 216.507812 169.640625 C 217.113281 170.230469 217.597656 170.914062 217.953125 171.695312 C 218.300781 172.472656 218.480469 173.3125 218.480469 174.210938 Z M 218.480469 174.210938 "/></g><g clip-rule="nonzero" clip-path="url(#87a62d23c8)"><path style=" stroke:none;fill-rule:nonzero;fill:#eeede8;fill-opacity:1;" d="M 217.792969 184.988281 L 217.792969 210.960938 C 217.792969 217.078125 212.894531 222.035156 206.847656 222.035156 L 206.847656 196.0625 C 206.847656 189.945312 211.746094 184.988281 217.792969 184.988281 Z M 217.792969 184.988281 "/></g><g clip-rule="nonzero" clip-path="url(#2a61616ba8)"><path style=" stroke:none;fill-rule:nonzero;fill:#eeede8;fill-opacity:1;" d="M 176.769531 200.308594 C 177.246094 201.535156 177.695312 202.871094 178.113281 204.324219 C 178.527344 205.777344 178.90625 207.296875 179.242188 208.882812 C 179.644531 207.296875 180.078125 205.777344 180.53125 204.324219 C 180.984375 202.871094 181.449219 201.535156 181.925781 200.308594 L 186.839844 186.65625 C 187.03125 186.105469 187.394531 185.640625 187.929688 185.265625 C 188.46875 184.894531 189.132812 184.707031 189.917969 184.707031 L 199.75 184.707031 L 184.863281 222.066406 L 173.90625 222.066406 L 159.019531 184.707031 L 168.949219 184.707031 C 169.667969 184.707031 170.289062 184.894531 170.8125 185.265625 C 171.339844 185.640625 171.699219 186.101562 171.886719 186.65625 Z M 176.769531 200.308594 "/></g><g clip-rule="nonzero" clip-path="url(#5dddd838e4)"><path style=" stroke:none;fill-rule:nonzero;fill:#eeede8;fill-opacity:1;" d="M 245.894531 221.273438 C 245.894531 222.148438 245.71875 222.96875 245.367188 223.738281 C 245.015625 224.507812 244.53125 225.175781 243.921875 225.757812 C 243.308594 226.335938 242.601562 226.796875 241.789062 227.136719 C 240.976562 227.476562 240.113281 227.648438 239.199219 227.648438 C 238.285156 227.648438 237.472656 227.476562 236.699219 227.136719 C 235.925781 226.796875 235.238281 226.335938 234.636719 225.757812 C 234.039062 225.175781 233.566406 224.507812 233.230469 223.738281 C 232.890625 222.96875 232.71875 222.148438 232.71875 221.273438 C 232.71875 220.398438 232.890625 219.539062 233.230469 218.757812 C 233.566406 217.980469 234.039062 217.292969 234.636719 216.703125 C 235.234375 216.113281 235.925781 215.652344 236.699219 215.324219 C 237.472656 214.992188 238.308594 214.828125 239.199219 214.828125 C 240.09375 214.828125 240.976562 214.992188 241.789062 215.324219 C 242.601562 215.652344 243.308594 216.113281 243.921875 216.703125 C 244.53125 217.292969 245.011719 217.980469 245.367188 218.757812 C 245.71875 219.539062 245.894531 220.375 245.894531 221.273438 Z M 245.894531 221.273438 "/></g><g clip-rule="nonzero" clip-path="url(#d3b8590457)"><path style=" stroke:none;fill-rule:nonzero;fill:#eeede8;fill-opacity:1;" d="M 245.207031 232.050781 L 245.207031 258.023438 C 245.207031 264.140625 240.308594 269.097656 234.261719 269.097656 L 234.261719 243.125 C 234.261719 237.007812 239.160156 232.050781 245.207031 232.050781 Z M 245.207031 232.050781 "/></g><g clip-rule="nonzero" clip-path="url(#c79412a257)"><path style=" stroke:none;fill-rule:nonzero;fill:#eeede8;fill-opacity:1;" d="M 204.183594 247.371094 C 204.660156 248.597656 205.109375 249.9375 205.527344 251.390625 C 205.945312 252.84375 206.324219 254.363281 206.65625 255.949219 C 207.0625 254.363281 207.492188 252.84375 207.945312 251.390625 C 208.398438 249.9375 208.863281 248.597656 209.339844 247.371094 L 214.253906 233.71875 C 214.445312 233.167969 214.808594 232.703125 215.347656 232.332031 C 215.882812 231.957031 216.546875 231.773438 217.335938 231.773438 L 227.164062 231.773438 L 212.277344 269.132812 L 201.320312 269.132812 L 186.433594 231.773438 L 196.363281 231.773438 C 197.082031 231.773438 197.703125 231.957031 198.230469 232.332031 C 198.753906 232.703125 199.113281 233.164062 199.300781 233.71875 Z M 204.183594 247.371094 "/></g><g clip-rule="nonzero" clip-path="url(#b800ef2fc4)"><path style=" stroke:none;fill-rule:nonzero;fill:#eeede8;fill-opacity:1;" d="M 251.414062 80.082031 C 251.414062 80.957031 251.238281 81.777344 250.886719 82.542969 C 250.535156 83.3125 250.054688 83.984375 249.441406 84.5625 C 248.828125 85.140625 248.121094 85.601562 247.308594 85.941406 C 246.496094 86.285156 245.632812 86.453125 244.71875 86.453125 C 243.804688 86.453125 242.992188 86.285156 242.21875 85.941406 C 241.445312 85.601562 240.757812 85.140625 240.15625 84.5625 C 239.558594 83.984375 239.085938 83.3125 238.75 82.542969 C 238.410156 81.777344 238.238281 80.957031 238.238281 80.082031 C 238.238281 79.207031 238.410156 78.34375 238.75 77.566406 C 239.085938 76.785156 239.558594 76.101562 240.15625 75.511719 C 240.753906 74.921875 241.445312 74.460938 242.21875 74.128906 C 242.992188 73.800781 243.828125 73.632812 244.71875 73.632812 C 245.613281 73.632812 246.496094 73.800781 247.308594 74.128906 C 248.121094 74.460938 248.828125 74.921875 249.441406 75.511719 C 250.050781 76.101562 250.53125 76.785156 250.886719 77.566406 C 251.238281 78.34375 251.414062 79.183594 251.414062 80.082031 Z M 251.414062 80.082031 "/></g><g clip-rule="nonzero" clip-path="url(#8657352391)"><path style=" stroke:none;fill-rule:nonzero;fill:#eeede8;fill-opacity:1;" d="M 250.726562 90.855469 L 250.726562 116.832031 C 250.726562 122.949219 245.828125 127.90625 239.78125 127.90625 L 239.78125 101.933594 C 239.78125 95.816406 244.683594 90.855469 250.726562 90.855469 Z M 250.726562 90.855469 "/></g><g clip-rule="nonzero" clip-path="url(#765a3bfc05)"><path style=" stroke:none;fill-rule:nonzero;fill:#eeede8;fill-opacity:1;" d="M 209.703125 106.179688 C 210.179688 107.40625 210.628906 108.742188 211.046875 110.195312 C 211.464844 111.648438 211.84375 113.167969 212.175781 114.753906 C 212.582031 113.167969 213.011719 111.648438 213.464844 110.195312 C 213.921875 108.742188 214.386719 107.40625 214.863281 106.179688 L 219.773438 92.527344 C 219.964844 91.976562 220.328125 91.511719 220.867188 91.136719 C 221.402344 90.761719 222.066406 90.578125 222.855469 90.578125 L 232.683594 90.578125 L 217.796875 127.9375 L 206.839844 127.9375 L 191.953125 90.578125 L 201.882812 90.578125 C 202.601562 90.578125 203.222656 90.761719 203.75 91.136719 C 204.273438 91.511719 204.632812 91.972656 204.820312 92.527344 Z M 209.703125 106.179688 "/></g><g clip-rule="nonzero" clip-path="url(#059be98ee6)"><path style=" stroke:none;fill-rule:nonzero;fill:#eeede8;fill-opacity:1;" d="M 278.722656 127.144531 C 278.722656 128.019531 278.546875 128.839844 278.195312 129.609375 C 277.84375 130.375 277.363281 131.046875 276.75 131.625 C 276.136719 132.207031 275.429688 132.664062 274.617188 133.007812 C 273.808594 133.347656 272.945312 133.519531 272.027344 133.519531 C 271.113281 133.519531 270.304688 133.347656 269.527344 133.007812 C 268.753906 132.664062 268.066406 132.207031 267.464844 131.625 C 266.871094 131.046875 266.398438 130.375 266.058594 129.609375 C 265.71875 128.839844 265.550781 128.019531 265.550781 127.144531 C 265.550781 126.269531 265.71875 125.410156 266.058594 124.628906 C 266.398438 123.851562 266.871094 123.164062 267.464844 122.574219 C 268.0625 121.984375 268.753906 121.523438 269.527344 121.195312 C 270.304688 120.863281 271.136719 120.699219 272.027344 120.699219 C 272.921875 120.699219 273.808594 120.863281 274.617188 121.195312 C 275.429688 121.523438 276.136719 121.984375 276.75 122.574219 C 277.359375 123.164062 277.84375 123.851562 278.195312 124.628906 C 278.546875 125.410156 278.722656 126.246094 278.722656 127.144531 Z M 278.722656 127.144531 "/></g><g clip-rule="nonzero" clip-path="url(#b241692fa9)"><path style=" stroke:none;fill-rule:nonzero;fill:#eeede8;fill-opacity:1;" d="M 278.039062 137.921875 L 278.039062 163.894531 C 278.039062 170.011719 273.136719 174.96875 267.089844 174.96875 L 267.089844 148.996094 C 267.089844 142.878906 271.992188 137.921875 278.039062 137.921875 Z M 278.039062 137.921875 "/></g><g clip-rule="nonzero" clip-path="url(#7bab05d323)"><path style=" stroke:none;fill-rule:nonzero;fill:#eeede8;fill-opacity:1;" d="M 237.015625 153.242188 C 237.488281 154.46875 237.941406 155.808594 238.355469 157.261719 C 238.773438 158.714844 239.152344 160.234375 239.484375 161.816406 C 239.890625 160.234375 240.320312 158.714844 240.777344 157.261719 C 241.230469 155.808594 241.695312 154.46875 242.171875 153.242188 L 247.085938 139.589844 C 247.273438 139.039062 247.640625 138.574219 248.175781 138.203125 C 248.710938 137.828125 249.375 137.644531 250.164062 137.644531 L 259.992188 137.644531 L 245.109375 175.003906 L 234.148438 175.003906 L 219.261719 137.644531 L 229.195312 137.644531 C 229.910156 137.644531 230.53125 137.828125 231.058594 138.203125 C 231.582031 138.574219 231.941406 139.035156 232.128906 139.589844 Z M 237.015625 153.242188 "/></g><g clip-rule="nonzero" clip-path="url(#247a9c7ab5)"><path style=" stroke:none;fill-rule:nonzero;fill:#eeede8;fill-opacity:1;" d="M 306.9375 174.210938 C 306.9375 175.085938 306.761719 175.90625 306.410156 176.671875 C 306.058594 177.441406 305.578125 178.113281 304.964844 178.691406 C 304.351562 179.269531 303.644531 179.730469 302.832031 180.070312 C 302.019531 180.414062 301.15625 180.582031 300.242188 180.582031 C 299.328125 180.582031 298.515625 180.414062 297.742188 180.070312 C 296.96875 179.730469 296.28125 179.269531 295.679688 178.691406 C 295.082031 178.113281 294.613281 177.441406 294.273438 176.671875 C 293.933594 175.90625 293.761719 175.085938 293.761719 174.210938 C 293.761719 173.335938 293.933594 172.472656 294.273438 171.695312 C 294.613281 170.914062 295.082031 170.230469 295.679688 169.640625 C 296.277344 169.050781 296.96875 168.589844 297.742188 168.257812 C 298.515625 167.929688 299.351562 167.761719 300.242188 167.761719 C 301.136719 167.761719 302.019531 167.929688 302.832031 168.257812 C 303.644531 168.589844 304.351562 169.050781 304.964844 169.640625 C 305.574219 170.230469 306.054688 170.914062 306.410156 171.695312 C 306.761719 172.472656 306.9375 173.3125 306.9375 174.210938 Z M 306.9375 174.210938 "/></g><g clip-rule="nonzero" clip-path="url(#47d9b2ae88)"><path style=" stroke:none;fill-rule:nonzero;fill:#eeede8;fill-opacity:1;" d="M 306.253906 184.988281 L 306.253906 210.960938 C 306.253906 217.078125 301.351562 222.035156 295.304688 222.035156 L 295.304688 196.0625 C 295.304688 189.945312 300.207031 184.988281 306.253906 184.988281 Z M 306.253906 184.988281 "/></g><g clip-rule="nonzero" clip-path="url(#7d387c5702)"><path style=" stroke:none;fill-rule:nonzero;fill:#eeede8;fill-opacity:1;" d="M 265.226562 200.308594 C 265.703125 201.535156 266.15625 202.871094 266.570312 204.324219 C 266.988281 205.777344 267.367188 207.296875 267.699219 208.882812 C 268.105469 207.296875 268.535156 205.777344 268.988281 204.324219 C 269.445312 202.871094 269.910156 201.535156 270.386719 200.308594 L 275.296875 186.65625 C 275.488281 186.105469 275.851562 185.640625 276.390625 185.265625 C 276.925781 184.894531 277.589844 184.707031 278.378906 184.707031 L 288.207031 184.707031 L 273.320312 222.066406 L 262.363281 222.066406 L 247.476562 184.707031 L 257.40625 184.707031 C 258.125 184.707031 258.746094 184.894531 259.273438 185.265625 C 259.796875 185.640625 260.15625 186.101562 260.34375 186.65625 Z M 265.226562 200.308594 "/></g><g clip-rule="nonzero" clip-path="url(#c8c49bec34)"><path style=" stroke:none;fill-rule:nonzero;fill:#eeede8;fill-opacity:1;" d="M 334.351562 221.273438 C 334.351562 222.148438 334.175781 222.96875 333.824219 223.738281 C 333.472656 224.507812 332.992188 225.175781 332.378906 225.757812 C 331.765625 226.335938 331.058594 226.796875 330.246094 227.136719 C 329.4375 227.476562 328.574219 227.648438 327.65625 227.648438 C 326.742188 227.648438 325.933594 227.476562 325.15625 227.136719 C 324.382812 226.796875 323.695312 226.335938 323.097656 225.757812 C 322.5 225.175781 322.027344 224.507812 321.6875 223.738281 C 321.347656 222.96875 321.179688 222.148438 321.179688 221.273438 C 321.179688 220.398438 321.347656 219.539062 321.6875 218.757812 C 322.027344 217.980469 322.5 217.292969 323.097656 216.703125 C 323.691406 216.113281 324.382812 215.652344 325.15625 215.324219 C 325.933594 214.992188 326.765625 214.828125 327.65625 214.828125 C 328.550781 214.828125 329.4375 214.992188 330.246094 215.324219 C 331.058594 215.652344 331.765625 216.113281 332.378906 216.703125 C 332.988281 217.292969 333.472656 217.980469 333.824219 218.757812 C 334.175781 219.539062 334.351562 220.375 334.351562 221.273438 Z M 334.351562 221.273438 "/></g><g clip-rule="nonzero" clip-path="url(#37c05720d7)"><path style=" stroke:none;fill-rule:nonzero;fill:#eeede8;fill-opacity:1;" d="M 333.667969 232.050781 L 333.667969 258.023438 C 333.667969 264.140625 328.765625 269.097656 322.71875 269.097656 L 322.71875 243.125 C 322.71875 237.007812 327.621094 232.050781 333.667969 232.050781 Z M 333.667969 232.050781 "/></g><g clip-rule="nonzero" clip-path="url(#6a7804590b)"><path style=" stroke:none;fill-rule:nonzero;fill:#eeede8;fill-opacity:1;" d="M 292.644531 247.371094 C 293.117188 248.597656 293.570312 249.9375 293.984375 251.390625 C 294.402344 252.84375 294.78125 254.363281 295.113281 255.949219 C 295.519531 254.363281 295.949219 252.84375 296.40625 251.390625 C 296.859375 249.9375 297.324219 248.597656 297.800781 247.371094 L 302.714844 233.71875 C 302.90625 233.167969 303.269531 232.703125 303.804688 232.332031 C 304.339844 231.957031 305.003906 231.773438 305.792969 231.773438 L 315.621094 231.773438 L 300.738281 269.132812 L 289.777344 269.132812 L 274.890625 231.773438 L 284.824219 231.773438 C 285.539062 231.773438 286.160156 231.957031 286.6875 232.332031 C 287.210938 232.703125 287.570312 233.164062 287.757812 233.71875 Z M 292.644531 247.371094 "/></g></g></svg>