<svg xmlns="http://www.w3.org/2000/svg" xmlns:xlink="http://www.w3.org/1999/xlink" width="500" zoomAndPan="magnify" viewBox="0 0 375 374.999991" height="500" preserveAspectRatio="xMidYMid meet" version="1.2"><metadata><ContainsAiGeneratedContent>Yes</ContainsAiGeneratedContent></metadata><defs><clipPath id="29e18c33a8"><path d="M 3.75 7.777344 L 372 7.777344 L 372 366 L 3.75 366 Z M 3.75 7.777344 "/></clipPath><clipPath id="04d2e882a5"><path d="M 143 136 L 303 136 L 303 284 L 143 284 Z M 143 136 "/></clipPath><clipPath id="113965edab"><path d="M 303.3125 283.648438 L 142.730469 282.453125 L 143.835938 133.84375 L 304.421875 135.039062 Z M 303.3125 283.648438 "/></clipPath><clipPath id="5cab5b67ec"><path d="M 303.3125 283.648438 L 142.730469 282.453125 L 143.835938 133.84375 L 304.421875 135.039062 Z M 303.3125 283.648438 "/></clipPath><clipPath id="a66c8f7d2a"><path d="M 155 53 L 217 53 L 217 114 L 155 114 Z M 155 53 "/></clipPath><clipPath id="16ac796507"><path d="M 168.9375 43.226562 L 226.425781 68.003906 L 202.726562 122.992188 L 145.234375 98.214844 Z M 168.9375 43.226562 "/></clipPath><clipPath id="62da991051"><path d="M 226.417969 68 L 168.929688 43.222656 L 145.226562 98.214844 L 202.71875 122.988281 Z M 226.417969 68 "/></clipPath><clipPath id="09561528d5"><path d="M 75 131 L 191 131 L 191 278 L 75 278 Z M 75 131 "/></clipPath><clipPath id="ed6fcf440a"><path d="M 142.488281 114.015625 L 192.480469 135.558594 L 122.890625 297.03125 L 72.898438 275.488281 Z M 142.488281 114.015625 "/></clipPath><clipPath id="4ad2e27171"><path d="M 142.488281 114.015625 L 192.480469 135.558594 L 122.890625 297.03125 L 72.898438 275.488281 Z M 142.488281 114.015625 "/></clipPath></defs><g id="abc4d1f76c"><g clip-rule="nonzero" clip-path="url(#29e18c33a8)"><path style=" stroke:none;fill-rule:nonzero;fill:#013699;fill-opacity:1;" d="M 371.949219 187.914062 C 371.949219 212.375 367.003906 235.28125 357.210938 256.734375 C 347.421875 278.191406 333.917969 296.953125 316.808594 313.121094 C 299.699219 329.289062 279.910156 342.140625 257.234375 351.675781 C 234.558594 361.210938 210.441406 365.980469 184.878906 365.980469 C 159.316406 365.980469 136.640625 361.210938 114.996094 351.675781 C 93.351562 342.140625 74.179688 329.289062 57.378906 313.121094 C 40.683594 296.953125 27.492188 278.191406 18.007812 256.734375 C 8.523438 235.28125 3.785156 212.375 3.785156 187.914062 C 3.785156 163.453125 8.523438 139.410156 18.007812 117.640625 C 27.492188 95.875 40.683594 76.703125 57.378906 60.222656 C 74.078125 43.742188 93.351562 30.890625 114.996094 21.664062 C 136.640625 12.441406 159.933594 7.777344 184.878906 7.777344 C 209.820312 7.777344 234.558594 12.441406 257.234375 21.664062 C 279.910156 30.890625 299.699219 43.742188 316.808594 60.222656 C 333.816406 76.703125 347.316406 95.875 357.210938 117.640625 C 367.003906 139.410156 371.949219 162.832031 371.949219 187.914062 Z M 371.949219 187.914062 "/></g><g clip-rule="nonzero" clip-path="url(#04d2e882a5)"><g clip-rule="nonzero" clip-path="url(#113965edab)"><g clip-rule="nonzero" clip-path="url(#5cab5b67ec)"><path style=" stroke:none;fill-rule:nonzero;fill:#eeede8;fill-opacity:1;" d="M 233.332031 221.605469 C 231.507812 216.800781 229.789062 211.558594 228.203125 205.871094 C 226.617188 200.183594 225.183594 194.234375 223.925781 188.035156 C 222.296875 194.210938 220.566406 200.140625 218.753906 205.800781 C 216.9375 211.460938 215.082031 216.679688 213.183594 221.457031 L 193.59375 274.648438 C 192.828125 276.796875 191.394531 278.597656 189.289062 280.042969 C 187.183594 281.484375 184.582031 282.1875 181.507812 282.164062 L 143.101562 281.878906 L 202.34375 136.359375 L 245.160156 136.679688 L 302.226562 283.066406 L 263.425781 282.777344 C 260.628906 282.753906 258.203125 282.015625 256.160156 280.539062 C 254.121094 279.066406 252.726562 277.257812 252.011719 275.085938 Z M 233.332031 221.605469 "/></g></g></g><g clip-rule="nonzero" clip-path="url(#a66c8f7d2a)"><g clip-rule="nonzero" clip-path="url(#16ac796507)"><g clip-rule="nonzero" clip-path="url(#62da991051)"><path style=" stroke:none;fill-rule:nonzero;fill:#eeede8;fill-opacity:1;" d="M 158.210938 71.289062 C 156.597656 75.03125 155.84375 78.863281 155.925781 82.792969 C 156.007812 86.722656 156.835938 90.480469 158.386719 94.085938 C 159.9375 97.6875 162.121094 100.957031 164.960938 103.914062 C 167.800781 106.867188 171.175781 109.1875 175.085938 110.871094 C 178.996094 112.558594 182.78125 113.324219 186.71875 113.292969 C 190.660156 113.257812 194.441406 112.554688 198.078125 111.191406 C 201.699219 109.816406 204.953125 107.816406 207.820312 105.15625 C 210.683594 102.5 212.921875 99.308594 214.535156 95.5625 C 216.148438 91.820312 217.007812 87.828125 216.992188 83.871094 C 216.976562 79.917969 216.222656 76.113281 214.757812 72.488281 C 213.289062 68.867188 211.1875 65.628906 208.484375 62.789062 C 205.78125 59.953125 202.523438 57.703125 198.710938 56.058594 C 194.894531 54.414062 190.800781 53.496094 186.722656 53.410156 C 182.648438 53.328125 178.773438 53.992188 175.066406 55.382812 C 171.378906 56.785156 168.046875 58.828125 165.097656 61.507812 C 162.164062 64.191406 159.863281 67.449219 158.210938 71.289062 Z M 158.210938 71.289062 "/></g></g></g><g clip-rule="nonzero" clip-path="url(#09561528d5)"><g clip-rule="nonzero" clip-path="url(#ed6fcf440a)"><g clip-rule="nonzero" clip-path="url(#4ad2e27171)"><path style=" stroke:none;fill-rule:nonzero;fill:#eeede8;fill-opacity:1;" d="M 190.410156 135.894531 L 142.742188 246.496094 C 131.515625 272.542969 101.519531 284.648438 75.730469 273.535156 L 123.398438 162.933594 C 134.625 136.882812 164.621094 124.78125 190.410156 135.894531 Z M 190.410156 135.894531 "/></g></g></g></g></svg>