<svg width="28" height="20" viewBox="0 0 28 20" fill="none" xmlns="http://www.w3.org/2000/svg">
<path d="M12.4854 19.7295C12.2347 19.7295 11.9984 19.6758 11.7764 19.5684C11.5544 19.4609 11.3216 19.2891 11.0781 19.0527L6.50195 14.7129C6.43034 14.6484 6.34082 14.6162 6.2334 14.6162H3.15039C2.42708 14.6162 1.87207 14.4193 1.48535 14.0254C1.09863 13.6315 0.905273 13.0443 0.905273 12.2637V8.26758C0.905273 7.49414 1.09863 6.91048 1.48535 6.5166C1.87207 6.11556 2.42708 5.91504 3.15039 5.91504H6.2334C6.34082 5.91504 6.43034 5.88281 6.50195 5.81836L11.0781 1.52148C11.3503 1.25651 11.5866 1.06673 11.7871 0.952148C11.9876 0.837565 12.2132 0.780273 12.4639 0.780273C12.8291 0.780273 13.1263 0.905599 13.3555 1.15625C13.5846 1.39974 13.6992 1.69694 13.6992 2.04785V18.5264C13.6992 18.8701 13.5846 19.1566 13.3555 19.3857C13.1335 19.6149 12.8434 19.7295 12.4854 19.7295ZM17.126 10.2441C17.126 9.97201 17.2083 9.75358 17.373 9.58887C17.5449 9.41699 17.7705 9.33105 18.0498 9.33105H21.208V6.17285C21.208 5.90072 21.2904 5.67871 21.4551 5.50684C21.6198 5.33496 21.8311 5.24902 22.0889 5.24902C22.361 5.24902 22.5794 5.33496 22.7441 5.50684C22.916 5.67155 23.002 5.89355 23.002 6.17285V9.33105H26.1709C26.443 9.33105 26.6615 9.41699 26.8262 9.58887C26.998 9.75358 27.084 9.97201 27.084 10.2441C27.084 10.502 26.998 10.7132 26.8262 10.8779C26.6615 11.0426 26.443 11.125 26.1709 11.125H23.002V14.2939C23.002 14.5661 22.916 14.7881 22.7441 14.96C22.5794 15.1247 22.361 15.207 22.0889 15.207C21.8311 15.207 21.6198 15.1247 21.4551 14.96C21.2904 14.7881 21.208 14.5661 21.208 14.2939V11.125H18.0498C17.7777 11.125 17.5557 11.0426 17.3838 10.8779C17.2119 10.7132 17.126 10.502 17.126 10.2441Z" fill="#60AB75"/>
</svg>
