<svg xmlns="http://www.w3.org/2000/svg" xmlns:xlink="http://www.w3.org/1999/xlink" width="500" zoomAndPan="magnify" viewBox="0 0 375 374.999991" height="500" preserveAspectRatio="xMidYMid meet" version="1.2"><metadata><ContainsAiGeneratedContent>Yes</ContainsAiGeneratedContent></metadata><defs><clipPath id="c18a12b344"><path d="M 3.75 7.777344 L 372 7.777344 L 372 366 L 3.75 366 Z M 3.75 7.777344 "/></clipPath><clipPath id="7ff312c254"><path d="M 172 302 L 202 302 L 202 332 L 172 332 Z M 172 302 "/></clipPath><clipPath id="9f38c93d49"><path d="M 201.203125 331.484375 L 171.363281 331.382812 L 171.464844 302.839844 L 201.304688 302.941406 Z M 201.203125 331.484375 "/></clipPath><clipPath id="c2ea191c29"><path d="M 201.304688 302.953125 L 171.464844 302.847656 L 171.363281 331.390625 L 201.203125 331.496094 Z M 201.304688 302.953125 "/></clipPath><clipPath id="88ba8b5ba5"><path d="M 174 212 L 199 212 L 199 295 L 174 295 Z M 174 212 "/></clipPath><clipPath id="5bb83513c5"><path d="M 199.550781 295.503906 L 173.601562 295.414062 L 173.894531 211.601562 L 199.84375 211.691406 Z M 199.550781 295.503906 "/></clipPath><clipPath id="89743ad50d"><path d="M 173.515625 295.414062 L 199.460938 295.503906 L 199.753906 211.691406 L 173.804688 211.601562 Z M 173.515625 295.414062 "/></clipPath><clipPath id="15bec2da1a"><path d="M 269 262 L 299 262 L 299 292 L 269 292 Z M 269 262 "/></clipPath><clipPath id="065b18f58c"><path d="M 304.398438 276.53125 L 283.296875 297.632812 L 263.113281 277.449219 L 284.214844 256.347656 Z M 304.398438 276.53125 "/></clipPath><clipPath id="38297da225"><path d="M 284.21875 256.355469 L 263.121094 277.457031 L 283.300781 297.636719 L 304.402344 276.539062 Z M 284.21875 256.355469 "/></clipPath><clipPath id="7eeb346bf4"><path d="M 201 204 L 277 204 L 277 260 L 201 260 Z M 201 204 "/></clipPath><clipPath id="1553eeb658"><path d="M 277.699219 252.351562 L 259.351562 270.699219 L 200.085938 211.433594 L 218.433594 193.085938 Z M 277.699219 252.351562 "/></clipPath><clipPath id="a0e5aed6b0"><path d="M 259.289062 270.761719 L 277.636719 252.414062 L 218.371094 193.148438 L 200.023438 211.496094 Z M 259.289062 270.761719 "/></clipPath><clipPath id="77bda5e1b6"><path d="M 82 266 L 111 266 L 111 296 L 82 296 Z M 82 266 "/></clipPath><clipPath id="c5f8247d3f"><path d="M 96.703125 301.335938 L 75.601562 280.234375 L 95.785156 260.050781 L 116.882812 281.152344 Z M 96.703125 301.335938 "/></clipPath><clipPath id="34e28ffcdf"><path d="M 116.878906 281.160156 L 95.777344 260.058594 L 75.59375 280.242188 L 96.695312 301.34375 Z M 116.878906 281.160156 "/></clipPath><clipPath id="289ab2bf3c"><path d="M 113 198 L 169 198 L 169 274 L 113 274 Z M 113 198 "/></clipPath><clipPath id="3773593b7c"><path d="M 120.882812 274.640625 L 102.535156 256.292969 L 161.800781 197.027344 L 180.148438 215.375 Z M 120.882812 274.640625 "/></clipPath><clipPath id="217995e726"><path d="M 102.472656 256.226562 L 120.820312 274.578125 L 180.085938 215.3125 L 161.738281 196.960938 Z M 102.472656 256.226562 "/></clipPath><clipPath id="7b4c0b81f0"><path d="M 42 172 L 71 172 L 71 203 L 42 203 Z M 42 172 "/></clipPath><clipPath id="5db63b970b"><path d="M 42.035156 201.765625 L 42.601562 171.929688 L 71.136719 172.472656 L 70.574219 202.304688 Z M 42.035156 201.765625 "/></clipPath><clipPath id="f9a4b6fa92"><path d="M 70.566406 202.304688 L 71.128906 172.46875 L 42.59375 171.929688 L 42.027344 201.765625 Z M 70.566406 202.304688 "/></clipPath><clipPath id="cc03d99f55"><path d="M 78 175 L 161 175 L 161 201 L 78 201 Z M 78 175 "/></clipPath><clipPath id="da4f09679a"><path d="M 78.039062 200.667969 L 78.53125 174.726562 L 162.328125 176.316406 L 161.835938 202.257812 Z M 78.039062 200.667969 "/></clipPath><clipPath id="fa5436b7a7"><path d="M 78.53125 174.636719 L 78.039062 200.578125 L 161.839844 202.167969 L 162.332031 176.226562 Z M 78.53125 174.636719 "/></clipPath><clipPath id="cfd81bc582"><path d="M 168 43 L 198 43 L 198 73 L 168 73 Z M 168 43 "/></clipPath><clipPath id="61c0097a41"><path d="M 168.804688 43.503906 L 198.648438 43.609375 L 198.546875 72.152344 L 168.707031 72.046875 Z M 168.804688 43.503906 "/></clipPath><clipPath id="99952dc577"><path d="M 168.707031 72.039062 L 198.546875 72.144531 L 198.648438 43.601562 L 168.804688 43.496094 Z M 168.707031 72.039062 "/></clipPath><clipPath id="b0234f95e2"><path d="M 171 80 L 196 80 L 196 162 L 171 162 Z M 171 80 "/></clipPath><clipPath id="87d101c249"><path d="M 170.457031 79.488281 L 196.40625 79.578125 L 196.117188 163.390625 L 170.167969 163.300781 Z M 170.457031 79.488281 "/></clipPath><clipPath id="e38046f4e8"><path d="M 196.496094 79.578125 L 170.546875 79.488281 L 170.257812 163.300781 L 196.203125 163.390625 Z M 196.496094 79.578125 "/></clipPath><clipPath id="dbd82c8d26"><path d="M 76 84 L 106 84 L 106 114 L 76 114 Z M 76 84 "/></clipPath><clipPath id="8844d7ccec"><path d="M 70.929688 99.4375 L 92.03125 78.335938 L 112.214844 98.519531 L 91.113281 119.621094 Z M 70.929688 99.4375 "/></clipPath><clipPath id="99f6a476ad"><path d="M 91.105469 119.613281 L 112.207031 98.515625 L 92.023438 78.332031 L 70.921875 99.429688 Z M 91.105469 119.613281 "/></clipPath><clipPath id="9e10988ca6"><path d="M 98 116 L 174 116 L 174 172 L 98 172 Z M 98 116 "/></clipPath><clipPath id="be94b201ee"><path d="M 97.625 123.621094 L 115.972656 105.269531 L 175.238281 164.535156 L 156.890625 182.882812 Z M 97.625 123.621094 "/></clipPath><clipPath id="1293a00a07"><path d="M 116.039062 105.207031 L 97.6875 123.554688 L 156.953125 182.820312 L 175.300781 164.472656 Z M 116.039062 105.207031 "/></clipPath><clipPath id="afee6834c2"><path d="M 263 79 L 292 79 L 292 109 L 263 109 Z M 263 79 "/></clipPath><clipPath id="61264b207d"><path d="M 277.34375 73.929688 L 298.441406 95.03125 L 278.257812 115.210938 L 257.160156 94.113281 Z M 277.34375 73.929688 "/></clipPath><clipPath id="854cd6155a"><path d="M 257.164062 94.105469 L 278.265625 115.207031 L 298.449219 95.023438 L 277.347656 73.921875 Z M 257.164062 94.105469 "/></clipPath><clipPath id="51a0ba2871"><path d="M 205 101 L 261 101 L 261 177 L 205 177 Z M 205 101 "/></clipPath><clipPath id="c1aada78ee"><path d="M 253.160156 100.625 L 271.507812 118.972656 L 212.242188 178.238281 L 193.894531 159.890625 Z M 253.160156 100.625 "/></clipPath><clipPath id="0b14fc31d3"><path d="M 271.570312 119.039062 L 253.222656 100.6875 L 193.957031 159.953125 L 212.304688 178.300781 Z M 271.570312 119.039062 "/></clipPath><clipPath id="3a821e560b"><path d="M 304 172 L 333 172 L 333 202 L 304 202 Z M 304 172 "/></clipPath><clipPath id="cd386a5c0c"><path d="M 332.964844 172.269531 L 332.398438 202.105469 L 303.859375 201.566406 L 304.425781 171.730469 Z M 332.964844 172.269531 "/></clipPath><clipPath id="25fa89be32"><path d="M 304.433594 171.730469 L 303.867188 201.566406 L 332.40625 202.105469 L 332.972656 172.269531 Z M 304.433594 171.730469 "/></clipPath><clipPath id="3535f0a27c"><path d="M 214 173 L 297 173 L 297 199 L 214 199 Z M 214 173 "/></clipPath><clipPath id="31d020135e"><path d="M 296.960938 173.367188 L 296.46875 199.308594 L 212.667969 197.722656 L 213.160156 171.777344 Z M 296.960938 173.367188 "/></clipPath><clipPath id="e03ca17815"><path d="M 296.464844 199.398438 L 296.957031 173.457031 L 213.160156 171.867188 L 212.667969 197.808594 Z M 296.464844 199.398438 "/></clipPath></defs><g id="515bf49e35"><g clip-rule="nonzero" clip-path="url(#c18a12b344)"><path style=" stroke:none;fill-rule:nonzero;fill:#013699;fill-opacity:1;" d="M 371.949219 187.914062 C 371.949219 212.375 367.003906 235.28125 357.210938 256.734375 C 347.421875 278.191406 333.917969 296.953125 316.808594 313.121094 C 299.699219 329.289062 279.910156 342.140625 257.234375 351.675781 C 234.558594 361.210938 210.441406 365.980469 184.878906 365.980469 C 159.316406 365.980469 136.640625 361.210938 114.996094 351.675781 C 93.351562 342.140625 74.179688 329.289062 57.378906 313.121094 C 40.683594 296.953125 27.492188 278.191406 18.007812 256.734375 C 8.523438 235.28125 3.785156 212.375 3.785156 187.914062 C 3.785156 163.453125 8.523438 139.410156 18.007812 117.640625 C 27.492188 95.875 40.683594 76.703125 57.378906 60.222656 C 74.078125 43.742188 93.351562 30.890625 114.996094 21.664062 C 136.640625 12.441406 159.933594 7.777344 184.878906 7.777344 C 209.820312 7.777344 234.558594 12.441406 257.234375 21.664062 C 279.910156 30.890625 299.699219 43.742188 316.808594 60.222656 C 333.816406 76.703125 347.316406 95.875 357.210938 117.640625 C 367.003906 139.410156 371.949219 162.832031 371.949219 187.914062 Z M 371.949219 187.914062 "/></g><g clip-rule="nonzero" clip-path="url(#7ff312c254)"><g clip-rule="nonzero" clip-path="url(#9f38c93d49)"><g clip-rule="nonzero" clip-path="url(#c2ea191c29)"><path style=" stroke:none;fill-rule:nonzero;fill:#eeede8;fill-opacity:1;" d="M 172.015625 317.15625 C 172.011719 319.101562 172.394531 320.921875 173.167969 322.628906 C 173.941406 324.335938 175.007812 325.828125 176.359375 327.117188 C 177.714844 328.40625 179.28125 329.433594 181.082031 330.195312 C 182.878906 330.960938 184.792969 331.347656 186.824219 331.351562 C 188.851562 331.359375 190.652344 330.988281 192.375 330.234375 C 194.097656 329.484375 195.621094 328.46875 196.960938 327.191406 C 198.292969 325.910156 199.34375 324.421875 200.101562 322.722656 C 200.863281 321.019531 201.246094 319.203125 201.25 317.257812 C 201.257812 315.316406 200.890625 313.40625 200.140625 311.675781 C 199.394531 309.941406 198.351562 308.414062 197.03125 307.101562 C 195.710938 305.789062 194.183594 304.761719 192.464844 304.023438 C 190.75 303.285156 188.902344 302.90625 186.921875 302.902344 C 184.941406 302.894531 182.976562 303.257812 181.171875 303.984375 C 179.367188 304.710938 177.792969 305.726562 176.429688 307.03125 C 175.074219 308.335938 174 309.855469 173.207031 311.578125 C 172.421875 313.304688 172.023438 315.164062 172.015625 317.15625 Z M 172.015625 317.15625 "/></g></g></g><g clip-rule="nonzero" clip-path="url(#88ba8b5ba5)"><g clip-rule="nonzero" clip-path="url(#5bb83513c5)"><g clip-rule="nonzero" clip-path="url(#89743ad50d)"><path style=" stroke:none;fill-rule:nonzero;fill:#eeede8;fill-opacity:1;" d="M 198.621094 294.960938 L 198.820312 237.554688 C 198.867188 224.035156 188.058594 213.039062 174.671875 212.992188 L 174.472656 270.398438 C 174.425781 283.921875 185.234375 294.917969 198.621094 294.960938 Z M 198.621094 294.960938 "/></g></g></g><g clip-rule="nonzero" clip-path="url(#15bec2da1a)"><g clip-rule="nonzero" clip-path="url(#065b18f58c)"><g clip-rule="nonzero" clip-path="url(#38297da225)"><path style=" stroke:none;fill-rule:nonzero;fill:#eeede8;fill-opacity:1;" d="M 273.664062 287.144531 C 275.035156 288.519531 276.601562 289.527344 278.355469 290.183594 C 280.109375 290.839844 281.921875 291.136719 283.792969 291.082031 C 285.660156 291.03125 287.492188 290.640625 289.300781 289.902344 C 291.109375 289.164062 292.734375 288.078125 294.167969 286.644531 C 295.605469 285.207031 296.609375 283.667969 297.289062 281.917969 C 297.96875 280.164062 298.324219 278.367188 298.359375 276.515625 C 298.386719 274.667969 298.074219 272.875 297.402344 271.136719 C 296.730469 269.398438 295.710938 267.847656 294.335938 266.472656 C 292.960938 265.101562 291.34375 264.015625 289.589844 263.324219 C 287.835938 262.636719 286.019531 262.300781 284.15625 262.3125 C 282.292969 262.324219 280.488281 262.683594 278.753906 263.378906 C 277.019531 264.078125 275.449219 265.125 274.050781 266.523438 C 272.648438 267.925781 271.523438 269.574219 270.765625 271.367188 C 270.011719 273.160156 269.621094 274.992188 269.585938 276.878906 C 269.558594 278.757812 269.878906 280.59375 270.542969 282.371094 C 271.214844 284.144531 272.253906 285.738281 273.664062 287.144531 Z M 273.664062 287.144531 "/></g></g></g><g clip-rule="nonzero" clip-path="url(#7eeb346bf4)"><g clip-rule="nonzero" clip-path="url(#1553eeb658)"><g clip-rule="nonzero" clip-path="url(#a0e5aed6b0)"><path style=" stroke:none;fill-rule:nonzero;fill:#eeede8;fill-opacity:1;" d="M 276.660156 252.628906 L 236.066406 212.035156 C 226.507812 202.476562 211.089844 202.398438 201.621094 211.863281 L 242.21875 252.457031 C 251.777344 262.015625 267.195312 262.09375 276.660156 252.628906 Z M 276.660156 252.628906 "/></g></g></g><g clip-rule="nonzero" clip-path="url(#77bda5e1b6)"><g clip-rule="nonzero" clip-path="url(#c5f8247d3f)"><g clip-rule="nonzero" clip-path="url(#34e28ffcdf)"><path style=" stroke:none;fill-rule:nonzero;fill:#eeede8;fill-opacity:1;" d="M 86.085938 270.601562 C 84.714844 271.976562 83.703125 273.539062 83.050781 275.296875 C 82.394531 277.050781 82.097656 278.863281 82.152344 280.730469 C 82.203125 282.597656 82.59375 284.433594 83.332031 286.242188 C 84.066406 288.050781 85.15625 289.671875 86.589844 291.105469 C 88.023438 292.542969 89.566406 293.546875 91.316406 294.226562 C 93.066406 294.90625 94.867188 295.261719 96.71875 295.296875 C 98.5625 295.328125 100.359375 295.015625 102.09375 294.339844 C 103.832031 293.667969 105.386719 292.648438 106.757812 291.273438 C 108.132812 289.902344 109.21875 288.285156 109.90625 286.527344 C 110.597656 284.773438 110.933594 282.957031 110.921875 281.09375 C 110.910156 279.230469 110.550781 277.425781 109.851562 275.691406 C 109.15625 273.960938 108.109375 272.390625 106.707031 270.988281 C 105.308594 269.589844 103.65625 268.460938 101.867188 267.707031 C 100.074219 266.949219 98.242188 266.5625 96.355469 266.527344 C 94.476562 266.496094 92.640625 266.816406 90.863281 267.484375 C 89.089844 268.15625 87.496094 269.191406 86.085938 270.601562 Z M 86.085938 270.601562 "/></g></g></g><g clip-rule="nonzero" clip-path="url(#289ab2bf3c)"><g clip-rule="nonzero" clip-path="url(#3773593b7c)"><g clip-rule="nonzero" clip-path="url(#217995e726)"><path style=" stroke:none;fill-rule:nonzero;fill:#eeede8;fill-opacity:1;" d="M 120.605469 273.601562 L 161.199219 233.007812 C 170.757812 223.445312 170.835938 208.027344 161.371094 198.5625 L 120.777344 239.15625 C 111.214844 248.714844 111.140625 264.136719 120.605469 273.601562 Z M 120.605469 273.601562 "/></g></g></g><g clip-rule="nonzero" clip-path="url(#7b4c0b81f0)"><g clip-rule="nonzero" clip-path="url(#5db63b970b)"><g clip-rule="nonzero" clip-path="url(#f9a4b6fa92)"><path style=" stroke:none;fill-rule:nonzero;fill:#eeede8;fill-opacity:1;" d="M 56.8125 172.800781 C 54.871094 172.765625 53.042969 173.125 51.324219 173.867188 C 49.605469 174.613281 48.097656 175.65625 46.785156 176.992188 C 45.476562 178.324219 44.425781 179.878906 43.636719 181.664062 C 42.84375 183.449219 42.429688 185.355469 42.390625 187.386719 C 42.351562 189.414062 42.695312 191.222656 43.421875 192.957031 C 44.144531 194.6875 45.136719 196.230469 46.394531 197.589844 C 47.65625 198.9375 49.125 200.015625 50.816406 200.800781 C 52.503906 201.585938 54.316406 201.996094 56.257812 202.03125 C 58.203125 202.070312 60.117188 201.730469 61.859375 201.007812 C 63.605469 200.289062 65.144531 199.269531 66.480469 197.96875 C 67.8125 196.667969 68.863281 195.15625 69.628906 193.453125 C 70.394531 191.75 70.800781 189.90625 70.835938 187.925781 C 70.875 185.945312 70.542969 183.972656 69.84375 182.160156 C 69.144531 180.347656 68.152344 178.753906 66.871094 177.371094 C 65.585938 175.996094 64.085938 174.898438 62.371094 174.078125 C 60.65625 173.269531 58.804688 172.839844 56.8125 172.800781 Z M 56.8125 172.800781 "/></g></g></g><g clip-rule="nonzero" clip-path="url(#cc03d99f55)"><g clip-rule="nonzero" clip-path="url(#da4f09679a)"><g clip-rule="nonzero" clip-path="url(#fa5436b7a7)"><path style=" stroke:none;fill-rule:nonzero;fill:#eeede8;fill-opacity:1;" d="M 78.59375 199.746094 L 135.992188 200.835938 C 149.511719 201.09375 160.671875 190.453125 160.925781 177.070312 L 103.527344 175.980469 C 90.007812 175.726562 78.847656 186.363281 78.59375 199.746094 Z M 78.59375 199.746094 "/></g></g></g><g clip-rule="nonzero" clip-path="url(#cfd81bc582)"><g clip-rule="nonzero" clip-path="url(#61c0097a41)"><g clip-rule="nonzero" clip-path="url(#99952dc577)"><path style=" stroke:none;fill-rule:nonzero;fill:#eeede8;fill-opacity:1;" d="M 197.992188 57.832031 C 198 55.890625 197.613281 54.070312 196.84375 52.363281 C 196.070312 50.65625 195.003906 49.160156 193.648438 47.875 C 192.296875 46.585938 190.726562 45.558594 188.929688 44.792969 C 187.132812 44.03125 185.21875 43.644531 183.1875 43.636719 C 181.160156 43.632812 179.355469 44.003906 177.636719 44.753906 C 175.914062 45.507812 174.386719 46.523438 173.050781 47.800781 C 171.71875 49.082031 170.667969 50.566406 169.90625 52.269531 C 169.148438 53.96875 168.765625 55.789062 168.757812 57.730469 C 168.75 59.675781 169.121094 61.585938 169.867188 63.316406 C 170.617188 65.046875 171.65625 66.574219 172.980469 67.890625 C 174.300781 69.203125 175.828125 70.230469 177.542969 70.96875 C 179.261719 71.707031 181.109375 72.082031 183.089844 72.089844 C 185.070312 72.097656 187.035156 71.734375 188.839844 71.007812 C 190.640625 70.28125 192.214844 69.265625 193.578125 67.960938 C 194.933594 66.65625 196.011719 65.136719 196.804688 63.410156 C 197.585938 61.683594 197.988281 59.824219 197.992188 57.832031 Z M 197.992188 57.832031 "/></g></g></g><g clip-rule="nonzero" clip-path="url(#b0234f95e2)"><g clip-rule="nonzero" clip-path="url(#87d101c249)"><g clip-rule="nonzero" clip-path="url(#e38046f4e8)"><path style=" stroke:none;fill-rule:nonzero;fill:#eeede8;fill-opacity:1;" d="M 171.390625 80.027344 L 171.191406 137.4375 C 171.144531 150.957031 181.953125 161.953125 195.335938 162 L 195.539062 104.589844 C 195.585938 91.070312 184.773438 80.074219 171.390625 80.027344 Z M 171.390625 80.027344 "/></g></g></g><g clip-rule="nonzero" clip-path="url(#dbd82c8d26)"><g clip-rule="nonzero" clip-path="url(#8844d7ccec)"><g clip-rule="nonzero" clip-path="url(#99f6a476ad)"><path style=" stroke:none;fill-rule:nonzero;fill:#eeede8;fill-opacity:1;" d="M 101.664062 88.824219 C 100.289062 87.449219 98.726562 86.441406 96.96875 85.785156 C 95.214844 85.128906 93.402344 84.835938 91.535156 84.886719 C 89.667969 84.941406 87.832031 85.328125 86.023438 86.066406 C 84.214844 86.804688 82.59375 87.890625 81.15625 89.324219 C 79.722656 90.761719 78.71875 92.300781 78.039062 94.054688 C 77.359375 95.804688 77.003906 97.601562 76.96875 99.453125 C 76.9375 101.300781 77.25 103.09375 77.925781 104.832031 C 78.597656 106.570312 79.617188 108.121094 80.992188 109.496094 C 82.363281 110.871094 83.980469 111.953125 85.738281 112.644531 C 87.492188 113.332031 89.308594 113.671875 91.171875 113.65625 C 93.035156 113.644531 94.839844 113.285156 96.574219 112.589844 C 98.304688 111.890625 99.875 110.84375 101.277344 109.445312 C 102.675781 108.042969 103.804688 106.394531 104.558594 104.601562 C 105.316406 102.8125 105.703125 100.976562 105.738281 99.089844 C 105.769531 97.210938 105.449219 95.375 104.78125 93.597656 C 104.109375 91.824219 103.070312 90.230469 101.664062 88.824219 Z M 101.664062 88.824219 "/></g></g></g><g clip-rule="nonzero" clip-path="url(#9e10988ca6)"><g clip-rule="nonzero" clip-path="url(#be94b201ee)"><g clip-rule="nonzero" clip-path="url(#1293a00a07)"><path style=" stroke:none;fill-rule:nonzero;fill:#eeede8;fill-opacity:1;" d="M 98.664062 123.339844 L 139.257812 163.933594 C 148.820312 173.496094 164.238281 173.570312 173.703125 164.105469 L 133.109375 123.511719 C 123.550781 113.953125 108.128906 113.875 98.664062 123.339844 Z M 98.664062 123.339844 "/></g></g></g><g clip-rule="nonzero" clip-path="url(#afee6834c2)"><g clip-rule="nonzero" clip-path="url(#61264b207d)"><g clip-rule="nonzero" clip-path="url(#854cd6155a)"><path style=" stroke:none;fill-rule:nonzero;fill:#eeede8;fill-opacity:1;" d="M 287.957031 104.664062 C 289.332031 103.289062 290.339844 101.726562 290.996094 99.96875 C 291.648438 98.214844 291.945312 96.402344 291.890625 94.535156 C 291.839844 92.664062 291.449219 90.832031 290.714844 89.023438 C 289.976562 87.214844 288.890625 85.59375 287.453125 84.15625 C 286.019531 82.722656 284.476562 81.71875 282.726562 81.039062 C 280.976562 80.359375 279.175781 80.003906 277.324219 79.96875 C 275.480469 79.9375 273.683594 80.25 271.949219 80.921875 C 270.210938 81.597656 268.65625 82.617188 267.285156 83.992188 C 265.910156 85.363281 264.824219 86.980469 264.136719 88.734375 C 263.445312 90.492188 263.109375 92.308594 263.121094 94.171875 C 263.132812 96.035156 263.492188 97.839844 264.191406 99.574219 C 264.886719 101.304688 265.933594 102.875 267.335938 104.277344 C 268.734375 105.675781 270.386719 106.804688 272.175781 107.558594 C 273.96875 108.3125 275.800781 108.703125 277.6875 108.738281 C 279.570312 108.769531 281.402344 108.449219 283.183594 107.78125 C 284.953125 107.109375 286.546875 106.070312 287.957031 104.664062 Z M 287.957031 104.664062 "/></g></g></g><g clip-rule="nonzero" clip-path="url(#51a0ba2871)"><g clip-rule="nonzero" clip-path="url(#c1aada78ee)"><g clip-rule="nonzero" clip-path="url(#0b14fc31d3)"><path style=" stroke:none;fill-rule:nonzero;fill:#eeede8;fill-opacity:1;" d="M 253.441406 101.664062 L 212.847656 142.257812 C 203.285156 151.820312 203.207031 167.238281 212.671875 176.703125 L 253.265625 136.109375 C 262.828125 126.546875 262.90625 111.128906 253.441406 101.664062 Z M 253.441406 101.664062 "/></g></g></g><g clip-rule="nonzero" clip-path="url(#3a821e560b)"><g clip-rule="nonzero" clip-path="url(#cd386a5c0c)"><g clip-rule="nonzero" clip-path="url(#25fa89be32)"><path style=" stroke:none;fill-rule:nonzero;fill:#eeede8;fill-opacity:1;" d="M 318.183594 201.234375 C 320.128906 201.269531 321.953125 200.914062 323.671875 200.167969 C 325.390625 199.421875 326.902344 198.378906 328.210938 197.042969 C 329.519531 195.710938 330.570312 194.160156 331.363281 192.371094 C 332.15625 190.585938 332.570312 188.679688 332.609375 186.648438 C 332.648438 184.621094 332.300781 182.8125 331.578125 181.078125 C 330.851562 179.347656 329.859375 177.804688 328.601562 176.449219 C 327.34375 175.097656 325.875 174.023438 324.183594 173.238281 C 322.492188 172.453125 320.683594 172.039062 318.738281 172.003906 C 316.796875 171.964844 314.878906 172.308594 313.136719 173.027344 C 311.394531 173.746094 309.851562 174.765625 308.519531 176.066406 C 307.183594 177.367188 306.132812 178.878906 305.371094 180.582031 C 304.605469 182.289062 304.199219 184.128906 304.160156 186.109375 C 304.125 188.089844 304.457031 190.0625 305.15625 191.875 C 305.855469 193.691406 306.84375 195.28125 308.128906 196.664062 C 309.410156 198.039062 310.914062 199.140625 312.625 199.957031 C 314.339844 200.769531 316.191406 201.195312 318.183594 201.234375 Z M 318.183594 201.234375 "/></g></g></g><g clip-rule="nonzero" clip-path="url(#3535f0a27c)"><g clip-rule="nonzero" clip-path="url(#31d020135e)"><g clip-rule="nonzero" clip-path="url(#e03ca17815)"><path style=" stroke:none;fill-rule:nonzero;fill:#eeede8;fill-opacity:1;" d="M 296.40625 174.289062 L 239.007812 173.199219 C 225.488281 172.945312 214.328125 183.582031 214.074219 196.964844 L 271.472656 198.054688 C 284.988281 198.308594 296.152344 187.671875 296.40625 174.289062 Z M 296.40625 174.289062 "/></g></g></g></g></svg>