<?xml version="1.0" encoding="UTF-8"?>
<svg version="1.1" xmlns="http://www.w3.org/2000/svg" width="512" height="512">
<path d="M0 0 C1.46880615 0.00845947 1.46880615 0.00845947 2.96728516 0.01708984 C12.53699012 0.17809937 20.86987432 1.16426458 28.46484375 7.44921875 C37.71468435 17.10386638 38.54914207 27.98159081 38.51069641 40.69735718 C38.51372016 42.05419615 38.51761076 43.41103341 38.52228898 44.76786768 C38.53254893 48.48163413 38.53039229 52.19530382 38.52610838 55.90907812 C38.52363752 59.9200834 38.5326598 63.9310656 38.54014587 67.94206238 C38.55288486 75.79436806 38.55468756 83.64663953 38.55234561 91.4989538 C38.5505614 97.88264406 38.5523143 104.26632395 38.55657005 110.65001297 C38.55716524 111.55913567 38.55776043 112.46825837 38.55837366 113.40493024 C38.55958543 115.25191366 38.56079956 117.09889707 38.56201603 118.94588049 C38.57288848 136.26077927 38.57073047 153.57565856 38.56463119 170.89055844 C38.55946226 186.72307531 38.57071735 202.55553064 38.58972941 218.38803534 C38.60911159 234.65374122 38.61736314 250.91941799 38.61360615 267.18513548 C38.61169469 276.31353189 38.61417634 285.44187593 38.62832069 294.57026291 C38.6402403 302.34135412 38.64163287 310.11236073 38.62953053 317.88345312 C38.62364592 321.84622401 38.62253077 325.80884018 38.63453293 329.77160072 C38.64540542 333.40366712 38.64227236 337.03544987 38.62827124 340.66750307 C38.62438192 342.59435075 38.63516026 344.52121109 38.64656812 346.44802892 C38.57494008 357.98770371 36.51987102 366.94339053 28.25 375.3125 C19.89532053 382.16333716 10.72476436 382.65735632 0.3125 382.625 C-0.72068359 382.64111328 -1.75386719 382.65722656 -2.81835938 382.67382812 C-13.33778547 382.68049021 -20.28826617 380.59611543 -27.9453125 373.296875 C-33.98933362 367.03777978 -39.32536479 360.10399836 -44.75 353.3125 C-73.41822858 317.57290935 -113.67925541 300.01941173 -156.84570312 287.72363281 C-164.71399009 285.44620537 -172.20052656 282.90927199 -179.55078125 279.26171875 C-180.19121872 278.94467484 -180.83165619 278.62763092 -181.49150085 278.30097961 C-187.44497 275.20226701 -192.45623177 271.51886806 -195.9375 265.6875 C-196.40542969 264.93210937 -196.87335938 264.17671875 -197.35546875 263.3984375 C-201.15834933 254.98309953 -202.19425691 246.7732937 -202.15405273 237.62158203 C-202.16434761 235.95337402 -202.16434761 235.95337402 -202.17485046 234.25146484 C-202.19301833 230.60761422 -202.18929493 226.96419831 -202.18359375 223.3203125 C-202.18816048 220.76642722 -202.19346752 218.21254317 -202.19947815 215.65866089 C-202.20838977 210.31779395 -202.20624537 204.97708266 -202.19604492 199.63623047 C-202.18457384 193.49504415 -202.19863533 187.35429509 -202.2254414 181.21316636 C-202.25041362 175.26564881 -202.25275186 169.31826511 -202.24632454 163.37069321 C-202.24617197 160.85828805 -202.25216292 158.34587421 -202.26461601 155.83349991 C-202.39725266 124.68920319 -202.39725266 124.68920319 -193.75 114.3125 C-193.31558594 113.76464844 -192.88117188 113.21679688 -192.43359375 112.65234375 C-182.72937344 101.58612761 -166.43408192 98.04394711 -152.91845703 93.94509888 C-135.73110743 88.71523103 -118.84477575 83.39448855 -102.75 75.3125 C-102.03666504 74.9613916 -101.32333008 74.6102832 -100.58837891 74.24853516 C-76.64205713 62.37280757 -56.54466092 45.31397097 -40.1875 24.25 C-28.50706133 9.22236774 -19.79943929 -0.11791397 0 0 Z " fill="rgba(245, 245, 245, 0.5)" transform="translate(247.75,64.6875)"/>
<path d="M0 0 C5.15664954 4.60894929 9.09755391 10.12751648 12.69921875 15.9921875 C13.12332031 16.68199707 13.54742187 17.37180664 13.984375 18.08251953 C50.56753027 78.39346615 58.20616682 151.14208226 42.03564453 219.21704102 C35.59055122 244.9244259 24.97617686 269.8059099 10.13671875 291.8046875 C9.71720947 292.42939941 9.2977002 293.05411133 8.86547852 293.69775391 C4.3672046 300.0655432 -0.98993125 305.16876425 -8.59375 307.33203125 C-14.90806088 308.38608951 -20.85145618 307.79850378 -26.42578125 304.5546875 C-33.27663434 299.62319407 -36.64715477 293.99307013 -38.05078125 285.7421875 C-38.59470337 277.59600504 -35.48034837 272.32408224 -31.05078125 265.7421875 C-17.65454458 244.83300986 -8.56855199 222.97400209 -3.05078125 198.7421875 C-2.89625488 198.06575195 -2.74172852 197.38931641 -2.58251953 196.69238281 C9.01371603 143.9679912 -0.52332182 85.2345876 -29.6171875 39.65234375 C-31.12748398 37.31897879 -32.67161796 35.01949653 -34.23828125 32.72265625 C-37.91732879 26.67284316 -39.10441108 20.66551236 -37.62109375 13.734375 C-35.45050877 6.90105193 -30.98455646 1.56112813 -24.92578125 -2.1953125 C-16.39585245 -5.34767749 -7.70017183 -5.01808951 0 0 Z " fill="rgba(245, 245, 245, 0.5)" transform="translate(425.05078125,104.2578125)"/>
<path d="M0 0 C5.3985366 5.12494631 8.8992443 10.85325504 12 17.5625 C12.42224854 18.46581055 12.84449707 19.36912109 13.27954102 20.29980469 C20.28361161 35.78290668 24.74510189 52.17499101 27 69 C27.0928125 69.65097656 27.185625 70.30195313 27.28125 70.97265625 C31.8781369 106.50002498 26.20762689 152.76740411 4.1796875 182.453125 C-0.93432797 187.91113254 -6.35120852 190.12788956 -13.8125 190.5 C-20.98180937 190.28465153 -26.77966744 188.2537385 -31.8828125 183.09765625 C-36.45462116 177.34424487 -38.5233546 171.74460489 -38.3046875 164.3828125 C-37.73280934 159.910432 -35.84550838 156.08062408 -34 152 C-18.8110151 117.93886434 -15.06593812 82.71265736 -28.44921875 47.09375 C-30.51384404 41.74616089 -32.67780061 36.47194572 -35.3125 31.375 C-38.19254325 25.6149135 -39.04227963 19.89913042 -37.3515625 13.57421875 C-34.90892075 6.69515503 -31.49512585 1.26373244 -24.828125 -2.09375 C-16.25711969 -5.2857106 -7.80794336 -4.99331521 0 0 Z " fill="rgba(245, 245, 245, 0.5)" transform="translate(361,163)"/>
</svg>
