<svg xmlns="http://www.w3.org/2000/svg" xmlns:xlink="http://www.w3.org/1999/xlink" width="500" zoomAndPan="magnify" viewBox="0 0 375 374.999991" height="500" preserveAspectRatio="xMidYMid meet" version="1.2"><metadata><ContainsAiGeneratedContent>Yes</ContainsAiGeneratedContent></metadata><defs><clipPath id="a41d499bdd"><path d="M 3.75 7.777344 L 372 7.777344 L 372 366 L 3.75 366 Z M 3.75 7.777344 "/></clipPath><clipPath id="cc7cdbac75"><path d="M 137 87 L 315 87 L 315 254 L 137 254 Z M 137 87 "/></clipPath><clipPath id="0233c549ce"><path d="M 316.078125 122.152344 L 224.71875 254.113281 L 102.625 169.582031 L 193.984375 37.621094 Z M 316.078125 122.152344 "/></clipPath><clipPath id="53f01e32bc"><path d="M 316.078125 122.152344 L 224.71875 254.113281 L 102.625 169.582031 L 193.984375 37.621094 Z M 316.078125 122.152344 "/></clipPath><clipPath id="36f324c9eb"><path d="M 71 102 L 133 102 L 133 163 L 71 163 Z M 71 102 "/></clipPath><clipPath id="6fda3f7549"><path d="M 58.917969 125.089844 L 111.46875 91.722656 L 143.632812 142.371094 L 91.082031 175.742188 Z M 58.917969 125.089844 "/></clipPath><clipPath id="267a6aa203"><path d="M 111.753906 91.539062 L 59.203125 124.910156 L 91.367188 175.558594 L 143.917969 142.191406 Z M 111.753906 91.539062 "/></clipPath><clipPath id="3ea83f3eda"><path d="M 124 159 L 221 159 L 221 332 L 124 332 Z M 124 159 "/></clipPath><clipPath id="6b2d930adc"><path d="M 102.523438 186.808594 L 148.742188 157.457031 L 242.820312 305.609375 L 196.601562 334.960938 Z M 102.523438 186.808594 "/></clipPath><clipPath id="04a4793f2b"><path d="M 102.523438 186.808594 L 148.742188 157.457031 L 242.820312 305.609375 L 196.601562 334.960938 Z M 102.523438 186.808594 "/></clipPath></defs><g id="c7112cbab4"><g clip-rule="nonzero" clip-path="url(#a41d499bdd)"><path style=" stroke:none;fill-rule:nonzero;fill:#013699;fill-opacity:1;" d="M 371.949219 187.914062 C 371.949219 212.375 367.003906 235.28125 357.210938 256.734375 C 347.421875 278.191406 333.917969 296.953125 316.808594 313.121094 C 299.699219 329.289062 279.910156 342.140625 257.234375 351.675781 C 234.558594 361.210938 210.441406 365.980469 184.878906 365.980469 C 159.316406 365.980469 136.640625 361.210938 114.996094 351.675781 C 93.351562 342.140625 74.179688 329.289062 57.378906 313.121094 C 40.683594 296.953125 27.492188 278.191406 18.007812 256.734375 C 8.523438 235.28125 3.785156 212.375 3.785156 187.914062 C 3.785156 163.453125 8.523438 139.410156 18.007812 117.640625 C 27.492188 95.875 40.683594 76.703125 57.378906 60.222656 C 74.078125 43.742188 93.351562 30.890625 114.996094 21.664062 C 136.640625 12.441406 159.933594 7.777344 184.878906 7.777344 C 209.820312 7.777344 234.558594 12.441406 257.234375 21.664062 C 279.910156 30.890625 299.699219 43.742188 316.808594 60.222656 C 333.816406 76.703125 347.316406 95.875 357.210938 117.640625 C 367.003906 139.410156 371.949219 162.832031 371.949219 187.914062 Z M 371.949219 187.914062 "/></g><g clip-rule="nonzero" clip-path="url(#cc7cdbac75)"><g clip-rule="nonzero" clip-path="url(#0233c549ce)"><g clip-rule="nonzero" clip-path="url(#53f01e32bc)"><path style=" stroke:none;fill-rule:nonzero;fill:#eeede8;fill-opacity:1;" d="M 225.46875 145.03125 C 220.476562 143.835938 215.175781 142.304688 209.589844 140.414062 C 204.003906 138.523438 198.28125 136.359375 192.453125 133.910156 C 196.640625 138.730469 200.5625 143.492188 204.214844 148.179688 C 207.867188 152.863281 211.132812 157.332031 214.007812 161.585938 L 246.914062 207.691406 C 248.253906 209.53125 248.9375 211.730469 248.945312 214.28125 C 248.949219 216.832031 248.070312 219.375 246.320312 221.902344 L 224.472656 253.453125 L 137.640625 122.65625 L 161.992188 87.480469 L 314.984375 122.71875 L 292.914062 154.597656 C 291.324219 156.894531 289.347656 158.484375 286.980469 159.339844 C 284.617188 160.195312 282.339844 160.328125 280.140625 159.695312 Z M 225.46875 145.03125 "/></g></g></g><g clip-rule="nonzero" clip-path="url(#36f324c9eb)"><g clip-rule="nonzero" clip-path="url(#6fda3f7549)"><g clip-rule="nonzero" clip-path="url(#267a6aa203)"><path style=" stroke:none;fill-rule:nonzero;fill:#eeede8;fill-opacity:1;" d="M 76.261719 149.441406 C 78.433594 152.863281 81.160156 155.628906 84.4375 157.757812 C 87.710938 159.890625 91.265625 161.316406 95.097656 162.058594 C 98.925781 162.800781 102.835938 162.839844 106.855469 162.160156 C 110.871094 161.480469 114.667969 160.007812 118.242188 157.738281 C 121.820312 155.464844 124.566406 152.785156 126.746094 149.53125 C 128.925781 146.273438 130.464844 142.773438 131.378906 139.019531 C 132.277344 135.273438 132.457031 131.476562 131.878906 127.632812 C 131.296875 123.789062 129.925781 120.164062 127.753906 116.742188 C 125.582031 113.320312 122.78125 110.378906 119.519531 108.175781 C 116.261719 105.972656 112.714844 104.460938 108.914062 103.640625 C 105.113281 102.816406 101.277344 102.730469 97.429688 103.363281 C 93.582031 103.992188 89.910156 105.410156 86.421875 107.625 C 82.933594 109.839844 79.890625 112.691406 77.539062 115.996094 C 75.1875 119.296875 73.558594 122.855469 72.628906 126.679688 C 71.714844 130.496094 71.53125 134.375 72.082031 138.300781 C 72.644531 142.214844 74.035156 145.929688 76.261719 149.441406 Z M 76.261719 149.441406 "/></g></g></g><g clip-rule="nonzero" clip-path="url(#3ea83f3eda)"><g clip-rule="nonzero" clip-path="url(#6b2d930adc)"><g clip-rule="nonzero" clip-path="url(#04a4793f2b)"><path style=" stroke:none;fill-rule:nonzero;fill:#eeede8;fill-opacity:1;" d="M 147.691406 159.464844 L 212.125 260.9375 C 227.300781 284.835938 220.347656 316.429688 196.585938 331.515625 L 132.152344 230.046875 C 116.976562 206.148438 123.933594 174.554688 147.691406 159.464844 Z M 147.691406 159.464844 "/></g></g></g></g></svg>